<!DOCTYPE svg PUBLIC "-//W3C//DTD SVG 1.1//EN" "http://www.w3.org/Graphics/SVG/1.1/DTD/svg11.dtd"> <svg width="521px" height="521px" version="1.1" baseProfile="full" xmlns="http://www.w3.org/2000/svg" xmlns:xlink="http://www.w3.org/1999/xlink" xmlns:ev="http://www.w3.org/2001/xml-events"><polygon fill="rgb(255,0,0)" stroke="rgb(255,0,0)" points="97.66376020759344,104.1892686970532 73.49908911436796,103.60003381222486 86.18636290356517,97.91850388795137"></polygon><polygon fill="rgb(255,0,0)" stroke="rgb(255,0,0)" points="121.83562748134136,104.77867940440774 97.66376020759344,104.1892686970532 110.31822624057531,98.50604835897684"></polygon><polygon fill="rgb(255,0,0)" stroke="rgb(255,0,0)" points="73.49908911436796,103.60003381222486 84.9832834303379,124.74798594415188 73.52351711690426,118.44330119341612"></polygon><polygon fill="rgb(255,0,0)" stroke="rgb(255,0,0)" points="109.15845551341772,125.34058500826359 121.83562748134136,104.77867940440774 121.80101057887077,119.62492115050554"></polygon><polygon fill="rgb(255,0,0)" stroke="rgb(255,0,0)" points="84.9832834303379,124.74798594415188 96.47583555616438,145.91132843494415 84.99368967860937,139.57080593705177"></polygon><polygon fill="rgb(255,0,0)" stroke="rgb(255,0,0)" points="96.47583555616438,145.91132843494415 109.15845551341772,125.34058500826359 109.1393218934536,140.16488629579544"></polygon><polygon fill="rgb(255,0,0)" stroke="rgb(255,0,0)" points="73.49908911436796,103.60003381222486 97.66376020759344,104.1892686970532 84.97285210341215,109.88885555416346"></polygon><polygon fill="rgb(255,0,0)" stroke="rgb(255,0,0)" points="84.9832834303379,124.74798594415188 73.49908911436796,103.60003381222486 84.97285210341215,109.88885555416346"></polygon><polygon fill="rgb(255,0,0)" stroke="rgb(255,0,0)" points="97.66376020759344,104.1892686970532 121.83562748134136,104.77867940440774 109.17763789743185,110.47996469493955"></polygon><polygon fill="rgb(255,0,0)" stroke="rgb(255,0,0)" points="121.83562748134136,104.77867940440774 109.15845551341772,125.34058500826359 109.17763789743185,110.47996469493955"></polygon><polygon fill="rgb(255,0,0)" stroke="rgb(255,0,0)" points="96.47583555616438,145.91132843494415 84.9832834303379,124.74798594415188 96.47948171384633,131.07271446287632"></polygon><polygon fill="rgb(255,0,0)" stroke="rgb(255,0,0)" points="109.15845551341772,125.34058500826359 96.47583555616438,145.91132843494415 96.47948171384633,131.07271446287632"></polygon><polygon fill="rgb(255,0,0)" stroke="rgb(255,0,0)" points="84.9519128203392,80.06112921237946 96.48313692770898,116.19769426435232 84.97285210341215,109.88885555416346"></polygon><polygon fill="rgb(255,0,0)" stroke="rgb(255,0,0)" points="96.48313692770898,116.19769426435232 59.48108132183552,121.33741144090891 84.97285210341215,109.88885555416346"></polygon><polygon fill="rgb(255,0,0)" stroke="rgb(255,0,0)" points="96.48313692770898,116.19769426435232 109.2161405980587,80.64923241734505 109.17763789743185,110.47996469493955"></polygon><polygon fill="rgb(255,0,0)" stroke="rgb(255,0,0)" points="132.31552897393703,123.12153093516827 96.48313692770898,116.19769426435232 109.17763789743185,110.47996469493955"></polygon><polygon fill="rgb(255,0,0)" stroke="rgb(255,0,0)" points="71.01164049655199,142.58665683865547 96.48313692770898,116.19769426435232 96.47948171384633,131.07271446287632"></polygon><polygon fill="rgb(255,0,0)" stroke="rgb(255,0,0)" points="97.67909371480346,59.436336398124695 73.42544425278902,58.85161808133125 86.15947231650352,53.213671028614044"></polygon><polygon fill="rgb(255,0,0)" stroke="rgb(255,0,0)" points="96.48313692770898,116.19769426435232 119.58187012374401,143.7826853096485 96.47948171384633,131.07271446287632"></polygon><polygon fill="rgb(255,0,0)" stroke="rgb(255,0,0)" points="121.93999369442463,60.02123013138771 97.67909371480346,59.436336398124695 110.38007159531116,53.79670339822769"></polygon><polygon fill="rgb(255,0,0)" stroke="rgb(255,0,0)" points="73.42544425278902,58.85161808133125 84.9519128203392,80.06112921237946 73.45005198568106,73.80432584881783"></polygon><polygon fill="rgb(255,0,0)" stroke="rgb(255,0,0)" points="109.2161405980587,80.64923241734505 121.93999369442463,60.02123013138771 121.90512043237686,74.976965457201"></polygon><polygon fill="rgb(255,0,0)" stroke="rgb(255,0,0)" points="59.48108132183552,121.33741144090891 35.21744707226753,120.74306064844131 48.014791771769524,115.01224113255739"></polygon><polygon fill="rgb(255,0,0)" stroke="rgb(255,0,0)" points="35.21744707226753,120.74306064844131 46.73742166161537,141.98890897631645 35.28894352912903,135.62951296567917"></polygon><polygon fill="rgb(255,0,0)" stroke="rgb(255,0,0)" points="109.2161405980587,80.64923241734505 96.48313692770898,116.19769426435232 96.49047382734716,86.33789756894112"></polygon><polygon fill="rgb(255,0,0)" stroke="rgb(255,0,0)" points="96.48313692770898,116.19769426435232 84.9519128203392,80.06112921237946 96.49047382734716,86.33789756894112"></polygon><polygon fill="rgb(255,0,0)" stroke="rgb(255,0,0)" points="59.48108132183552,121.33741144090891 96.48313692770898,116.19769426435232 70.98397316783667,127.68277169764042"></polygon><polygon fill="rgb(255,0,0)" stroke="rgb(255,0,0)" points="96.48313692770898,116.19769426435232 71.01164049655199,142.58665683865547 70.98397316783667,127.68277169764042"></polygon><polygon fill="rgb(255,0,0)" stroke="rgb(255,0,0)" points="46.73742166161537,141.98890897631645 58.265811532735825,163.25028815865517 46.79480440914631,156.85472387075424"></polygon><polygon fill="rgb(255,0,0)" stroke="rgb(255,0,0)" points="156.60820987820625,123.71659395098686 132.31552897393703,123.12153093516827 144.98044165968895,117.38385637104511"></polygon><polygon fill="rgb(255,0,0)" stroke="rgb(255,0,0)" points="96.48313692770898,116.19769426435232 132.31552897393703,123.12153093516827 119.6139680147171,128.8758067190647"></polygon><polygon fill="rgb(255,0,0)" stroke="rgb(255,0,0)" points="119.58187012374401,143.7826853096485 96.48313692770898,116.19769426435232 119.6139680147171,128.8758067190647"></polygon><polygon fill="rgb(255,0,0)" stroke="rgb(255,0,0)" points="58.265811532735825,163.25028815865517 71.01164049655199,142.58665683865547 71.0392395555973,157.45395627617836"></polygon><polygon fill="rgb(255,0,0)" stroke="rgb(255,0,0)" points="73.42544425278902,58.85161808133125 97.67909371480346,59.436336398124695 84.94140486419201,65.09226688742638"></polygon><polygon fill="rgb(255,0,0)" stroke="rgb(255,0,0)" points="84.9519128203392,80.06112921237946 73.42544425278902,58.85161808133125 84.94140486419201,65.09226688742638"></polygon><polygon fill="rgb(255,0,0)" stroke="rgb(255,0,0)" points="143.87788927555084,144.38096591830254 156.60820987820625,123.71659395098686 156.53073912858963,138.6105177104473"></polygon><polygon fill="rgb(255,0,0)" stroke="rgb(255,0,0)" points="97.67909371480346,59.436336398124695 121.93999369442463,60.02123013138771 109.23546370118856,65.67884981632233"></polygon><polygon fill="rgb(255,0,0)" stroke="rgb(255,0,0)" points="119.58187012374401,143.7826853096485 131.1420708745718,165.0542613863945 119.54985025525093,158.65296033024788"></polygon><polygon fill="rgb(255,0,0)" stroke="rgb(255,0,0)" points="121.93999369442463,60.02123013138771 109.2161405980587,80.64923241734505 109.23546370118856,65.67884981632233"></polygon><polygon fill="rgb(255,0,0)" stroke="rgb(255,0,0)" points="131.1420708745718,165.0542613863945 143.87788927555084,144.38096591830254 143.816034168005,159.25273197889328"></polygon><polygon fill="rgb(255,0,0)" stroke="rgb(255,0,0)" points="35.21744707226753,120.74306064844131 59.48108132183552,121.33741144090891 46.67989680171013,127.08652299642563"></polygon><polygon fill="rgb(255,0,0)" stroke="rgb(255,0,0)" points="46.73742166161537,141.98890897631645 35.21744707226753,120.74306064844131 46.67989680171013,127.08652299642563"></polygon><polygon fill="rgb(255,0,0)" stroke="rgb(255,0,0)" points="58.265811532735825,163.25028815865517 46.73742166161537,141.98890897631645 58.222456112504005,148.3686110675335"></polygon><polygon fill="rgb(255,0,0)" stroke="rgb(255,0,0)" points="71.01164049655199,142.58665683865547 58.265811532735825,163.25028815865517 58.222456112504005,148.3686110675335"></polygon><polygon fill="rgb(255,0,0)" stroke="rgb(255,0,0)" points="132.31552897393703,123.12153093516827 156.60820987820625,123.71659395098686 143.93989485502243,129.47259303927422"></polygon><polygon fill="rgb(255,0,0)" stroke="rgb(255,0,0)" points="156.60820987820625,123.71659395098686 143.87788927555084,144.38096591830254 143.93989485502243,129.47259303927422"></polygon><polygon fill="rgb(255,0,0)" stroke="rgb(255,0,0)" points="131.1420708745718,165.0542613863945 119.58187012374401,143.7826853096485 131.18841065466404,150.16811767220497"></polygon><polygon fill="rgb(255,0,0)" stroke="rgb(255,0,0)" points="143.87788927555084,144.38096591830254 131.1420708745718,165.0542613863945 131.18841065466404,150.16811767220497"></polygon><polygon fill="rgb(255,0,0)" stroke="rgb(255,0,0)" points="96.49415620975196,71.35285145044327 72.16684690862894,70.76456633210182 84.94140486419201,65.09226688742638"></polygon><polygon fill="rgb(255,0,0)" stroke="rgb(255,0,0)" points="120.82875852286816,71.94131198525429 96.49415620975196,71.35285145044327 109.23546370118856,65.67884981632233"></polygon><polygon fill="rgb(255,0,0)" stroke="rgb(255,0,0)" points="84.92031092941761,35.04385769367218 96.49415620975196,71.35285145044327 84.94140486419201,65.09226688742638"></polygon><polygon fill="rgb(255,0,0)" stroke="rgb(255,0,0)" points="96.49415620975196,71.35285145044327 109.2742520198226,35.62737733125687 109.23546370118856,65.67884981632233"></polygon><polygon fill="rgb(255,0,0)" stroke="rgb(255,0,0)" points="83.72795815393329,92.04303725063801 96.49415620975196,71.35285145044327 96.49047382734716,86.33789756894112"></polygon><polygon fill="rgb(255,0,0)" stroke="rgb(255,0,0)" points="96.49415620975196,71.35285145044327 108.0659109055996,92.63472674787045 96.49047382734716,86.33789756894112"></polygon><polygon fill="rgb(255,0,0)" stroke="rgb(255,0,0)" points="46.62223261594772,112.14742827787995 58.1789920181036,133.450263813138 46.67989680171013,127.08652299642563"></polygon><polygon fill="rgb(255,0,0)" stroke="rgb(255,0,0)" points="97.69454042427242,14.352569043636322 73.35125602036715,13.772453784942627 86.13238388672471,8.178890347480774"></polygon><polygon fill="rgb(255,0,0)" stroke="rgb(255,0,0)" points="58.1789920181036,133.450263813138 70.95623756945133,112.74217213317752 70.98397316783667,127.68277169764042"></polygon><polygon fill="rgb(255,0,0)" stroke="rgb(255,0,0)" points="82.52364355698228,134.0484209805727 58.1789920181036,133.450263813138 70.98397316783667,127.68277169764042"></polygon><polygon fill="rgb(255,0,0)" stroke="rgb(255,0,0)" points="122.04512898623943,14.932859718799591 97.69454042427242,14.352569043636322 110.44237393885851,8.757329404354095"></polygon><polygon fill="rgb(255,0,0)" stroke="rgb(255,0,0)" points="73.35125602036715,13.772453784942627 84.92031092941761,35.04385769367218 73.37604627013206,28.835816860198975"></polygon><polygon fill="rgb(255,0,0)" stroke="rgb(255,0,0)" points="58.1789920181036,133.450263813138 20.966139525175095,138.63477391004562 46.67989680171013,127.08652299642563"></polygon><polygon fill="rgb(255,0,0)" stroke="rgb(255,0,0)" points="58.1789920181036,133.450263813138 69.74421685934067,154.76871344447136 58.222456112504005,148.3686110675335"></polygon><polygon fill="rgb(255,0,0)" stroke="rgb(255,0,0)" points="131.2348674684763,135.24527455866337 106.87560134381056,134.64675843715668 119.6139680147171,128.8758067190647"></polygon><polygon fill="rgb(255,0,0)" stroke="rgb(255,0,0)" points="119.6461439281702,113.93219502642751 131.2348674684763,135.24527455866337 119.6139680147171,128.8758067190647"></polygon><polygon fill="rgb(255,0,0)" stroke="rgb(255,0,0)" points="109.2742520198226,35.62737733125687 122.04512898623943,14.932859718799591 122.00999657809734,29.999315321445465"></polygon><polygon fill="rgb(255,0,0)" stroke="rgb(255,0,0)" points="131.2348674684763,135.24527455866337 144.00205647945404,114.52747447043657 143.93989485502243,129.47259303927422"></polygon><polygon fill="rgb(255,0,0)" stroke="rgb(255,0,0)" points="32.532754838466644,159.98285430669785 58.1789920181036,133.450263813138 58.222456112504005,148.3686110675335"></polygon><polygon fill="rgb(255,0,0)" stroke="rgb(255,0,0)" points="118.46215000748634,155.9720444381237 131.2348674684763,135.24527455866337 131.18841065466404,150.16811767220497"></polygon><polygon fill="rgb(255,0,0)" stroke="rgb(255,0,0)" points="72.16684690862894,70.76456633210182 96.49415620975196,71.35285145044327 83.71590855717659,77.04330325126648"></polygon><polygon fill="rgb(255,0,0)" stroke="rgb(255,0,0)" points="96.49415620975196,71.35285145044327 83.72795815393329,92.04303725063801 83.71590855717659,77.04330325126648"></polygon><polygon fill="rgb(255,0,0)" stroke="rgb(255,0,0)" points="167.30035480856895,142.23576217889786 131.2348674684763,135.24527455866337 143.93989485502243,129.47259303927422"></polygon><polygon fill="rgb(255,0,0)" stroke="rgb(255,0,0)" points="96.49415620975196,71.35285145044327 120.82875852286816,71.94131198525429 108.08387418836355,77.63346922397614"></polygon><polygon fill="rgb(255,0,0)" stroke="rgb(255,0,0)" points="108.0659109055996,92.63472674787045 96.49415620975196,71.35285145044327 108.08387418836355,77.63346922397614"></polygon><polygon fill="rgb(255,0,0)" stroke="rgb(255,0,0)" points="60.61419343948364,49.501670122146606 59.31311006844044,61.41807147860527 22.031497478485107,66.51853922009468"></polygon><polygon fill="rgb(255,0,0)" stroke="rgb(255,0,0)" points="59.31311006844044,61.41807147860527 60.61419343948364,49.501670122146606 95.30420872103423,68.28905338048935"></polygon><polygon fill="rgb(255,0,0)" stroke="rgb(255,0,0)" points="109.2742520198226,35.62737733125687 96.49415620975196,71.35285145044327 96.50154744647443,41.27177906036377"></polygon><polygon fill="rgb(255,0,0)" stroke="rgb(255,0,0)" points="96.49415620975196,71.35285145044327 84.92031092941761,35.04385769367218 96.50154744647443,41.27177906036377"></polygon><polygon fill="rgb(255,0,0)" stroke="rgb(255,0,0)" points="131.2348674684763,135.24527455866337 154.51307779550552,163.00037491321564 131.18841065466404,150.16811767220497"></polygon><polygon fill="rgb(255,0,0)" stroke="rgb(255,0,0)" points="58.1789920181036,133.450263813138 46.62223261594772,112.14742827787995 58.13541924953461,118.49511158466339"></polygon><polygon fill="rgb(255,0,0)" stroke="rgb(255,0,0)" points="20.966139525175095,138.63477391004562 -3.3972659707069397,138.03523939847946 9.511586785316467,132.2544887214899"></polygon><polygon fill="rgb(255,0,0)" stroke="rgb(255,0,0)" points="70.95623756945133,112.74217213317752 58.1789920181036,133.450263813138 58.13541924953461,118.49511158466339"></polygon><polygon fill="rgb(255,0,0)" stroke="rgb(255,0,0)" points="133.58608883619308,51.25684833526611 132.50726921856403,63.18398258090019 95.30420872103423,68.28905338048935"></polygon><polygon fill="rgb(255,0,0)" stroke="rgb(255,0,0)" points="73.35125602036715,13.772453784942627 97.69454042427242,14.352569043636322 84.90972425416112,19.96403795480728"></polygon><polygon fill="rgb(255,0,0)" stroke="rgb(255,0,0)" points="84.92031092941761,35.04385769367218 73.35125602036715,13.772453784942627 84.90972425416112,19.96403795480728"></polygon><polygon fill="rgb(255,0,0)" stroke="rgb(255,0,0)" points="-3.3972659707069397,138.03523939847946 8.158676981925964,159.3798926770687 -3.2778915762901306,152.96507155895233"></polygon><polygon fill="rgb(255,0,0)" stroke="rgb(255,0,0)" points="132.50726921856403,63.18398258090019 133.58608883619308,51.25684833526611 168.64312726259232,70.06116902828217"></polygon><polygon fill="rgb(255,0,0)" stroke="rgb(255,0,0)" points="22.295525550842285,111.55286268144846 33.6203436255455,87.88041417300701 33.69429221749306,102.90806334838271"></polygon><polygon fill="rgb(255,0,0)" stroke="rgb(255,0,0)" points="22.031497478485107,66.51853922009468 33.6203436255455,87.88041417300701 22.295525550842285,111.55286268144846"></polygon><polygon fill="rgb(255,0,0)" stroke="rgb(255,0,0)" points="58.1789920181036,133.450263813138 82.52364355698228,134.0484209805727 69.71490269899368,139.83438217639923"></polygon><polygon fill="rgb(255,0,0)" stroke="rgb(255,0,0)" points="69.74421685934067,154.76871344447136 58.1789920181036,133.450263813138 69.71490269899368,139.83438217639923"></polygon><polygon fill="rgb(255,0,0)" stroke="rgb(255,0,0)" points="97.69454042427242,14.352569043636322 122.04512898623943,14.932859718799591 109.29371862858534,20.546017825603485"></polygon><polygon fill="rgb(255,0,0)" stroke="rgb(255,0,0)" points="131.2348674684763,135.24527455866337 119.6461439281702,113.93219502642751 131.28143852949142,120.28559723496437"></polygon><polygon fill="rgb(255,0,0)" stroke="rgb(255,0,0)" points="122.04512898623943,14.932859718799591 109.2742520198226,35.62737733125687 109.29371862858534,20.546017825603485"></polygon><polygon fill="rgb(255,0,0)" stroke="rgb(255,0,0)" points="22.295525550842285,111.55286268144846 33.69429221749306,102.90806334838271 56.82361614704132,130.65132024884224"></polygon><polygon fill="rgb(255,0,0)" stroke="rgb(255,0,0)" points="144.00205647945404,114.52747447043657 131.2348674684763,135.24527455866337 131.28143852949142,120.28559723496437"></polygon><polygon fill="rgb(255,0,0)" stroke="rgb(255,0,0)" points="20.966139525175095,138.63477391004562 58.1789920181036,133.450263813138 32.45741856098175,145.03551623225212"></polygon><polygon fill="rgb(255,0,0)" stroke="rgb(255,0,0)" points="58.1789920181036,133.450263813138 32.532754838466644,159.98285430669785 32.45741856098175,145.03551623225212"></polygon><polygon fill="rgb(255,0,0)" stroke="rgb(255,0,0)" points="8.158676981925964,159.3798926770687 19.723096519708633,180.74021649360657 8.263851284980774,174.28888601064682"></polygon><polygon fill="rgb(255,0,0)" stroke="rgb(255,0,0)" points="106.87560134381056,134.64675843715668 131.2348674684763,135.24527455866337 118.49296610057354,141.03471159934998"></polygon><polygon fill="rgb(255,0,0)" stroke="rgb(255,0,0)" points="19.723096519708633,180.74021649360657 32.532754838466644,159.98285430669785 32.6079016327858,174.89334517717361"></polygon><polygon fill="rgb(255,0,0)" stroke="rgb(255,0,0)" points="131.2348674684763,135.24527455866337 118.46215000748634,155.9720444381237 118.49296610057354,141.03471159934998"></polygon><polygon fill="rgb(255,0,0)" stroke="rgb(255,0,0)" points="191.71505451202393,142.83655709028244 167.30035480856895,142.23576217889786 179.97533518075943,136.4428476691246"></polygon><polygon fill="rgb(255,0,0)" stroke="rgb(255,0,0)" points="131.2348674684763,135.24527455866337 167.30035480856895,142.23576217889786 154.58852553367615,148.04551991820335"></polygon><polygon fill="rgb(255,0,0)" stroke="rgb(255,0,0)" points="154.51307779550552,163.00037491321564 131.2348674684763,135.24527455866337 154.58852553367615,148.04551991820335"></polygon><polygon fill="rgb(255,0,0)" stroke="rgb(255,0,0)" points="168.36527249217033,115.12293257936835 155.75493931770325,105.88461811840534 168.64312726259232,70.06116902828217"></polygon><polygon fill="rgb(255,0,0)" stroke="rgb(255,0,0)" points="168.36527249217033,115.12293257936835 143.01525601744652,111.64653771556914 155.75493931770325,105.88461811840534"></polygon><polygon fill="rgb(255,0,0)" stroke="rgb(255,0,0)" points="130.192963629961,132.45278242230415 143.01525601744652,111.64653771556914 168.36527249217033,115.12293257936835"></polygon><polygon fill="rgb(255,0,0)" stroke="rgb(255,0,0)" points="56.95925822854042,175.49797976016998 68.43806202709675,152.06038385629654 68.46904531121254,167.02526032924652"></polygon><polygon fill="rgb(255,0,0)" stroke="rgb(255,0,0)" points="56.82361614704132,130.65132024884224 68.43806202709675,152.06038385629654 56.95925822854042,175.49797976016998"></polygon><polygon fill="rgb(255,0,0)" stroke="rgb(255,0,0)" points="178.93114918470383,163.60442477464676 191.71505451202393,142.83655709028244 191.593907892704,157.77839878201485"></polygon><polygon fill="rgb(255,0,0)" stroke="rgb(255,0,0)" points="-3.3972659707069397,138.03523939847946 20.966139525175095,138.63477391004562 8.05324074625969,144.43405863642693"></polygon><polygon fill="rgb(255,0,0)" stroke="rgb(255,0,0)" points="8.158676981925964,159.3798926770687 -3.3972659707069397,138.03523939847946 8.05324074625969,144.43405863642693"></polygon><polygon fill="rgb(255,0,0)" stroke="rgb(255,0,0)" points="154.51307779550552,163.00037491321564 166.14169868826866,184.38130366802216 154.43781396746635,177.918337225914"></polygon><polygon fill="rgb(255,0,0)" stroke="rgb(255,0,0)" points="56.95925822854042,175.49797976016998 68.46904531121254,167.02526032924652 91.69262039661407,194.92582803964615"></polygon><polygon fill="rgb(255,255,255)" stroke="rgb(255,255,255)" points="109.31323260813951,5.427385568618774 84.89911250025034,4.846964955329895 97.69971498660743,-0.7495090961456299"></polygon><polygon fill="rgb(255,0,0)" stroke="rgb(255,0,0)" points="166.14169868826866,184.38130366802216 178.93114918470383,163.60442477464676 178.82575196027756,178.52388137578964"></polygon><polygon fill="rgb(255,0,0)" stroke="rgb(255,0,0)" points="84.89911250025034,4.846964955329895 96.50525699742138,26.17548316717148 84.90972425416112,19.96403795480728"></polygon><polygon fill="rgb(255,0,0)" stroke="rgb(255,0,0)" points="130.0571989417076,177.31297498941422 117.33558341860771,168.23596531152725 130.192963629961,132.45278242230415"></polygon><polygon fill="rgb(255,0,0)" stroke="rgb(255,0,0)" points="19.723096519708633,180.74021649360657 8.158676981925964,159.3798926770687 19.631916105747223,165.8152894973755"></polygon><polygon fill="rgb(255,0,0)" stroke="rgb(255,0,0)" points="130.0571989417076,177.31297498941422 104.53165069594979,174.09241956472397 117.33558341860771,168.23596531152725"></polygon><polygon fill="rgb(255,0,0)" stroke="rgb(255,0,0)" points="96.50525699742138,26.17548316717148 109.31323260813951,5.427385568618774 109.29371862858534,20.546017825603485"></polygon><polygon fill="rgb(255,0,0)" stroke="rgb(255,0,0)" points="91.69262039661407,194.92582803964615 104.53165069594979,174.09241956472397 130.0571989417076,177.31297498941422"></polygon><polygon fill="rgb(255,0,0)" stroke="rgb(255,0,0)" points="32.532754838466644,159.98285430669785 19.723096519708633,180.74021649360657 19.631916105747223,165.8152894973755"></polygon><polygon fill="rgb(255,0,0)" stroke="rgb(255,0,0)" points="96.50525699742138,26.17548316717148 59.22850026190281,31.235962450504303 84.90972425416112,19.96403795480728"></polygon><polygon fill="rgb(255,0,0)" stroke="rgb(255,0,0)" points="46.44838738441467,67.1085330247879 22.031497478485107,66.51853922009468 59.31311006844044,61.41807147860527"></polygon><polygon fill="rgb(255,0,0)" stroke="rgb(255,0,0)" points="59.31311006844044,61.41807147860527 95.30420872103423,68.28905338048935 70.8726197630167,67.69870549440384"></polygon><polygon fill="rgb(255,0,0)" stroke="rgb(255,0,0)" points="132.6038526892662,32.992595970630646 96.50525699742138,26.17548316717148 109.29371862858534,20.546017825603485"></polygon><polygon fill="rgb(255,0,0)" stroke="rgb(255,0,0)" points="70.84460969269276,52.60986804962158 96.50525699742138,26.17548316717148 96.50154744647443,41.27177906036377"></polygon><polygon fill="rgb(255,0,0)" stroke="rgb(255,0,0)" points="96.50525699742138,26.17548316717148 119.77565009891987,53.78765970468521 96.50154744647443,41.27177906036377"></polygon><polygon fill="rgb(255,0,0)" stroke="rgb(255,0,0)" points="167.30035480856895,142.23576217889786 191.71505451202393,142.83655709028244 179.03680834174156,148.6480624973774"></polygon><polygon fill="rgb(255,0,0)" stroke="rgb(255,0,0)" points="119.74315373599529,68.87957993149757 95.30420872103423,68.28905338048935 132.50726921856403,63.18398258090019"></polygon><polygon fill="rgb(255,0,0)" stroke="rgb(255,0,0)" points="191.71505451202393,142.83655709028244 178.93114918470383,163.60442477464676 179.03680834174156,148.6480624973774"></polygon><polygon fill="rgb(255,0,0)" stroke="rgb(255,0,0)" points="132.50726921856403,63.18398258090019 168.64312726259232,70.06116902828217 144.18945533037186,69.47028514742851"></polygon><polygon fill="rgb(255,0,0)" stroke="rgb(255,0,0)" points="45.21771094202995,109.25800245208666 56.82361614704132,130.65132024884224 33.69429221749306,102.90806334838271"></polygon><polygon fill="rgb(255,0,0)" stroke="rgb(255,0,0)" points="166.14169868826866,184.38130366802216 154.51307779550552,163.00037491321564 166.23155829310417,169.44739145040512"></polygon><polygon fill="rgb(255,0,0)" stroke="rgb(255,0,0)" points="178.93114918470383,163.60442477464676 166.14169868826866,184.38130366802216 166.23155829310417,169.44739145040512"></polygon><polygon fill="rgb(255,0,0)" stroke="rgb(255,0,0)" points="96.50525699742138,26.17548316717148 84.89911250025034,4.846964955329895 96.50897560454905,11.04182356595993"></polygon><polygon fill="rgb(255,255,255)" stroke="rgb(255,255,255)" points="84.89911250025034,4.846964955329895 109.31323260813951,5.427385568618774 96.50897560454905,11.04182356595993"></polygon><polygon fill="rgb(255,0,0)" stroke="rgb(255,0,0)" points="19.540507197380066,150.85342434048653 -4.897225856781006,150.25021582841873 8.05324074625969,144.43405863642693"></polygon><polygon fill="rgb(255,0,0)" stroke="rgb(255,0,0)" points="59.22850026190281,31.235962450504303 34.78478455543518,30.650766611099243 47.677617624402046,25.008320450782776"></polygon><polygon fill="rgb(255,0,0)" stroke="rgb(255,0,0)" points="109.31323260813951,5.427385568618774 96.50525699742138,26.17548316717148 96.50897560454905,11.04182356595993"></polygon><polygon fill="rgb(255,0,0)" stroke="rgb(255,0,0)" points="7.841582477092743,114.43132634833455 19.540507197380066,150.85342434048653 8.05324074625969,144.43405863642693"></polygon><polygon fill="rgb(255,255,255)" stroke="rgb(255,255,255)" points="-4.897225856781006,150.25021582841873 6.693531841039658,171.66469460725784 -4.77563339471817,165.21057695150375"></polygon><polygon fill="rgb(255,0,0)" stroke="rgb(255,0,0)" points="34.78478455543518,30.650766611099243 46.39014917612076,52.02124184370041 34.85733988881111,45.75892585515976"></polygon><polygon fill="rgb(255,0,0)" stroke="rgb(255,0,0)" points="155.83197537064552,90.84933467209339 168.64312726259232,70.06116902828217 155.75493931770325,105.88461811840534"></polygon><polygon fill="rgb(255,0,0)" stroke="rgb(255,0,0)" points="19.540507197380066,150.85342434048653 32.3061942756176,115.02974988892674 32.45741856098175,145.03551623225212"></polygon><polygon fill="rgb(255,0,0)" stroke="rgb(255,0,0)" points="6.693531841039658,171.66469460725784 19.540507197380066,150.85342434048653 19.631916105747223,165.8152894973755"></polygon><polygon fill="rgb(255,0,0)" stroke="rgb(255,0,0)" points="55.55086050927639,157.89876371622086 19.540507197380066,150.85342434048653 32.45741856098175,145.03551623225212"></polygon><polygon fill="rgb(255,0,0)" stroke="rgb(255,0,0)" points="33.6203436255455,87.88041417300701 22.031497478485107,66.51853922009468 45.157917857170105,94.21407268941402"></polygon><polygon fill="rgb(255,0,0)" stroke="rgb(255,0,0)" points="59.22850026190281,31.235962450504303 96.50525699742138,26.17548316717148 70.81652995944023,37.483627915382385"></polygon><polygon fill="rgb(255,0,0)" stroke="rgb(255,0,0)" points="96.50525699742138,26.17548316717148 70.84460969269276,52.60986804962158 70.81652995944023,37.483627915382385"></polygon><polygon fill="rgb(255,0,0)" stroke="rgb(255,0,0)" points="46.39014917612076,52.02124184370041 58.00405725836754,73.40744933485985 46.44838738441467,67.1085330247879"></polygon><polygon fill="rgb(255,0,0)" stroke="rgb(255,0,0)" points="157.07704696059227,33.57849997282028 132.6038526892662,32.992595970630646 145.362289249897,27.343347549438477"></polygon><polygon fill="rgb(255,0,0)" stroke="rgb(255,0,0)" points="96.50525699742138,26.17548316717148 132.6038526892662,32.992595970630646 119.8082272708416,38.65831404924393"></polygon><polygon fill="rgb(255,0,0)" stroke="rgb(255,0,0)" points="119.77565009891987,53.78765970468521 96.50525699742138,26.17548316717148 119.8082272708416,38.65831404924393"></polygon><polygon fill="rgb(255,0,0)" stroke="rgb(255,0,0)" points="20.69669446349144,93.61891709268093 -3.7571613788604736,93.02394178509712 9.20008760690689,87.28716704249382"></polygon><polygon fill="rgb(255,0,0)" stroke="rgb(255,0,0)" points="19.540507197380066,150.85342434048653 42.68912497162819,178.7481870651245 19.631916105747223,165.8152894973755"></polygon><polygon fill="rgb(255,0,0)" stroke="rgb(255,0,0)" points="70.8726197630167,67.69870549440384 95.30420872103423,68.28905338048935 58.00405725836754,73.40744933485985"></polygon><polygon fill="rgb(255,0,0)" stroke="rgb(255,0,0)" points="58.00405725836754,73.40744933485985 70.84460969269276,52.60986804962158 70.8726197630167,67.69870549440384"></polygon><polygon fill="rgb(255,0,0)" stroke="rgb(255,0,0)" points="80.06105972826481,173.48521220684052 91.69262039661407,194.92582803964615 68.46904531121254,167.02526032924652"></polygon><polygon fill="rgb(255,0,0)" stroke="rgb(255,0,0)" points="45.157917857170105,94.21407268941402 20.69669446349144,93.61891709268093 33.6203436255455,87.88041417300701"></polygon><polygon fill="rgb(255,0,0)" stroke="rgb(255,0,0)" points="-3.7571613788604736,93.02394178509712 7.841582477092743,114.43132634833455 -3.6368952989578247,108.06481348443776"></polygon><polygon fill="rgb(255,0,0)" stroke="rgb(255,0,0)" points="117.36509820818901,153.2680742740631 130.192963629961,132.45278242230415 117.33558341860771,168.23596531152725"></polygon><polygon fill="rgb(255,0,0)" stroke="rgb(255,0,0)" points="144.25223556160927,54.37681865692139 157.07704696059227,33.57849997282028 156.99842816591263,48.694403529167175"></polygon><polygon fill="rgb(255,0,0)" stroke="rgb(255,0,0)" points="119.77565009891987,53.78765970468521 131.4218399822712,75.18419077992439 119.74315373599529,68.87957993149757"></polygon><polygon fill="rgb(255,0,0)" stroke="rgb(255,0,0)" points="190.81098574399948,155.08097425103188 166.32164081931114,154.4764923453331 179.03680834174156,148.6480624973774"></polygon><polygon fill="rgb(255,0,0)" stroke="rgb(255,0,0)" points="154.73997831344604,118.02457558363676 166.32164081931114,154.4764923453331 154.58852553367615,148.04551991820335"></polygon><polygon fill="rgb(255,0,0)" stroke="rgb(255,0,0)" points="22.031497478485107,66.51853922009468 46.44838738441467,67.1085330247879 56.68696255981922,85.47047124803066"></polygon><polygon fill="rgb(255,0,0)" stroke="rgb(255,0,0)" points="56.68696255981922,85.47047124803066 45.157917857170105,94.21407268941402 22.031497478485107,66.51853922009468"></polygon><polygon fill="rgb(255,0,0)" stroke="rgb(255,0,0)" points="45.157917857170105,94.21407268941402 56.82361614704132,130.65132024884224 45.21771094202995,109.25800245208666"></polygon><polygon fill="rgb(255,0,0)" stroke="rgb(255,0,0)" points="32.3061942756176,115.02974988892674 45.157917857170105,94.21407268941402 45.21771094202995,109.25800245208666"></polygon><polygon fill="rgb(255,0,0)" stroke="rgb(255,0,0)" points="144.18945533037186,69.47028514742851 168.64312726259232,70.06116902828217 131.4218399822712,75.18419077992439"></polygon><polygon fill="rgb(255,0,0)" stroke="rgb(255,0,0)" points="131.4218399822712,75.18419077992439 144.25223556160927,54.37681865692139 144.18945533037186,69.47028514742851"></polygon><polygon fill="rgb(255,0,0)" stroke="rgb(255,0,0)" points="166.32164081931114,154.4764923453331 129.0536598712206,159.7158574461937 154.58852553367615,148.04551991820335"></polygon><polygon fill="rgb(255,0,0)" stroke="rgb(255,0,0)" points="56.68696255981922,85.47047124803066 46.44838738441467,67.1085330247879 58.00405725836754,73.40744933485985"></polygon><polygon fill="rgb(255,0,0)" stroke="rgb(255,0,0)" points="166.32164081931114,154.4764923453331 179.24891245365143,118.62408248335123 179.03680834174156,148.6480624973774"></polygon><polygon fill="rgb(255,0,0)" stroke="rgb(255,0,0)" points="166.32164081931114,154.4764923453331 177.98771250247955,175.91513961553574 166.23155829310417,169.44739145040512"></polygon><polygon fill="rgb(255,0,0)" stroke="rgb(255,0,0)" points="143.07661512494087,96.59649147093296 168.64312726259232,70.06116902828217 155.83197537064552,90.84933467209339"></polygon><polygon fill="rgb(255,255,255)" stroke="rgb(255,255,255)" points="177.98771250247955,175.91513961553574 190.81098574399948,155.08097425103188 190.69058591127396,170.05338388681412"></polygon><polygon fill="rgb(255,0,0)" stroke="rgb(255,0,0)" points="56.68696255981922,85.47047124803066 58.00405725836754,73.40744933485985 95.30420872103423,68.28905338048935"></polygon><polygon fill="rgb(255,0,0)" stroke="rgb(255,0,0)" points="-4.897225856781006,150.25021582841873 19.540507197380066,150.85342434048653 6.585955560207367,156.6882828772068"></polygon><polygon fill="rgb(255,255,255)" stroke="rgb(255,255,255)" points="6.693531841039658,171.66469460725784 -4.897225856781006,150.25021582841873 6.585955560207367,156.6882828772068"></polygon><polygon fill="rgb(255,0,0)" stroke="rgb(255,0,0)" points="34.78478455543518,30.650766611099243 59.22850026190281,31.235962450504303 46.331766068935394,36.896554470062256"></polygon><polygon fill="rgb(255,0,0)" stroke="rgb(255,0,0)" points="46.39014917612076,52.02124184370041 34.78478455543518,30.650766611099243 46.331766068935394,36.896554470062256"></polygon><polygon fill="rgb(255,0,0)" stroke="rgb(255,0,0)" points="95.30420872103423,68.28905338048935 119.74315373599529,68.87957993149757 130.32974261045456,87.25814698636532"></polygon><polygon fill="rgb(255,0,0)" stroke="rgb(255,0,0)" points="140.7212334871292,181.18446844816208 166.32164081931114,154.4764923453331 166.23155829310417,169.44739145040512"></polygon><polygon fill="rgb(255,0,0)" stroke="rgb(255,0,0)" points="167.5747542977333,97.19254445284605 143.07661512494087,96.59649147093296 155.83197537064552,90.84933467209339"></polygon><polygon fill="rgb(255,0,0)" stroke="rgb(255,0,0)" points="19.540507197380066,150.85342434048653 6.693531841039658,171.66469460725784 6.585955560207367,156.6882828772068"></polygon><polygon fill="rgb(255,0,0)" stroke="rgb(255,0,0)" points="68.43806202709675,152.06038385629654 56.82361614704132,130.65132024884224 80.04439914226532,158.50427863001823"></polygon><polygon fill="rgb(255,0,0)" stroke="rgb(255,0,0)" points="130.32974261045456,87.25814698636532 119.74315373599529,68.87957993149757 131.4218399822712,75.18419077992439"></polygon><polygon fill="rgb(255,0,0)" stroke="rgb(255,0,0)" points="143.01525601744652,111.64653771556914 130.192963629961,132.45278242230415 143.07661512494087,96.59649147093296"></polygon><polygon fill="rgb(255,0,0)" stroke="rgb(255,0,0)" points="192.08028888702393,97.78877853602171 167.5747542977333,97.19254445284605 180.29639211297035,91.44365541636944"></polygon><polygon fill="rgb(255,0,0)" stroke="rgb(255,0,0)" points="143.07661512494087,96.59649147093296 154.73997831344604,118.02457558363676 143.01525601744652,111.64653771556914"></polygon><polygon fill="rgb(255,0,0)" stroke="rgb(255,0,0)" points="32.3061942756176,115.02974988892674 19.540507197380066,150.85342434048653 19.3570094704628,120.81833136826754"></polygon><polygon fill="rgb(255,0,0)" stroke="rgb(255,0,0)" points="19.540507197380066,150.85342434048653 7.841582477092743,114.43132634833455 19.3570094704628,120.81833136826754"></polygon><polygon fill="rgb(255,0,0)" stroke="rgb(255,0,0)" points="58.00405725836754,73.40744933485985 46.39014917612076,52.02124184370041 57.96005257964134,58.3037014901638"></polygon><polygon fill="rgb(255,0,0)" stroke="rgb(255,0,0)" points="130.32974261045456,87.25814698636532 131.4218399822712,75.18419077992439 168.64312726259232,70.06116902828217"></polygon><polygon fill="rgb(255,0,0)" stroke="rgb(255,0,0)" points="143.07661512494087,96.59649147093296 130.32974261045456,87.25814698636532 168.64312726259232,70.06116902828217"></polygon><polygon fill="rgb(255,0,0)" stroke="rgb(255,0,0)" points="80.04439914226532,158.50427863001823 55.55086050927639,157.89876371622086 68.43806202709675,152.06038385629654"></polygon><polygon fill="rgb(255,0,0)" stroke="rgb(255,0,0)" points="19.540507197380066,150.85342434048653 55.55086050927639,157.89876371622086 42.62604379653931,163.75418496131897"></polygon><polygon fill="rgb(255,0,0)" stroke="rgb(255,0,0)" points="42.68912497162819,178.7481870651245 19.540507197380066,150.85342434048653 42.62604379653931,163.75418496131897"></polygon><polygon fill="rgb(255,0,0)" stroke="rgb(255,0,0)" points="70.84460969269276,52.60986804962158 58.00405725836754,73.40744933485985 57.96005257964134,58.3037014901638"></polygon><polygon fill="rgb(255,0,0)" stroke="rgb(255,0,0)" points="45.157917857170105,94.21407268941402 56.68696255981922,85.47047124803066 56.82361614704132,130.65132024884224"></polygon><polygon fill="rgb(255,0,0)" stroke="rgb(255,0,0)" points="104.545329708606,159.10997545719147 130.192963629961,132.45278242230415 117.36509820818901,153.2680742740631"></polygon><polygon fill="rgb(255,0,0)" stroke="rgb(255,0,0)" points="179.24891245365143,118.62408248335123 192.08028888702393,97.78877853602171 191.9582394361496,112.84188502654433"></polygon><polygon fill="rgb(255,0,0)" stroke="rgb(255,0,0)" points="132.6038526892662,32.992595970630646 157.07704696059227,33.57849997282028 144.31516626477242,39.24592024087906"></polygon><polygon fill="rgb(255,0,0)" stroke="rgb(255,0,0)" points="-3.7571613788604736,93.02394178509712 20.69669446349144,93.61891709268093 7.7353604435920715,99.37415198236704"></polygon><polygon fill="rgb(255,0,0)" stroke="rgb(255,0,0)" points="7.841582477092743,114.43132634833455 -3.7571613788604736,93.02394178509712 7.7353604435920715,99.37415198236704"></polygon><polygon fill="rgb(255,0,0)" stroke="rgb(255,0,0)" points="157.07704696059227,33.57849997282028 144.25223556160927,54.37681865692139 144.31516626477242,39.24592024087906"></polygon><polygon fill="rgb(255,0,0)" stroke="rgb(255,0,0)" points="91.68587876670063,149.93461886048317 80.04439914226532,158.50427863001823 56.82361614704132,130.65132024884224"></polygon><polygon fill="rgb(255,0,0)" stroke="rgb(255,0,0)" points="80.04439914226532,158.50427863001823 91.69262039661407,194.92582803964615 80.06105972826481,173.48521220684052"></polygon><polygon fill="rgb(255,0,0)" stroke="rgb(255,0,0)" points="129.0536598712206,159.7158574461937 104.545329708606,159.10997545719147 117.36509820818901,153.2680742740631"></polygon><polygon fill="rgb(255,0,0)" stroke="rgb(255,0,0)" points="67.18605200946331,179.3569796681404 80.04439914226532,158.50427863001823 80.06105972826481,173.48521220684052"></polygon><polygon fill="rgb(255,0,0)" stroke="rgb(255,0,0)" points="20.69669446349144,93.61891709268093 45.157917857170105,94.21407268941402 32.23029512166977,99.97104468941689"></polygon><polygon fill="rgb(255,0,0)" stroke="rgb(255,0,0)" points="131.4218399822712,75.18419077992439 119.77565009891987,53.78765970468521 131.4688736051321,60.07580414414406"></polygon><polygon fill="rgb(255,0,0)" stroke="rgb(255,0,0)" points="42.68912497162819,178.7481870651245 54.32210676372051,200.2187666296959 42.75204452872276,193.70505285263062"></polygon><polygon fill="rgb(255,0,0)" stroke="rgb(255,0,0)" points="104.53165069594979,174.09241956472397 91.69262039661407,194.92582803964615 104.545329708606,159.10997545719147"></polygon><polygon fill="rgb(255,0,0)" stroke="rgb(255,0,0)" points="45.157917857170105,94.21407268941402 32.3061942756176,115.02974988892674 32.23029512166977,99.97104468941689"></polygon><polygon fill="rgb(255,0,0)" stroke="rgb(255,0,0)" points="144.25223556160927,54.37681865692139 131.4218399822712,75.18419077992439 131.4688736051321,60.07580414414406"></polygon><polygon fill="rgb(255,0,0)" stroke="rgb(255,0,0)" points="130.32974261045456,87.25814698636532 143.07661512494087,96.59649147093296 130.192963629961,132.45278242230415"></polygon><polygon fill="rgb(255,0,0)" stroke="rgb(255,0,0)" points="104.545329708606,159.10997545719147 116.20210487395525,180.57512360811234 104.53165069594979,174.09241956472397"></polygon><polygon fill="rgb(255,0,0)" stroke="rgb(255,0,0)" points="54.32210676372051,200.2187666296959 67.18605200946331,179.3569796681404 67.21864311397076,194.31534624099731"></polygon><polygon fill="rgb(255,0,0)" stroke="rgb(255,0,0)" points="166.32164081931114,154.4764923453331 190.81098574399948,155.08097425103188 178.09252455830574,160.9281671643257"></polygon><polygon fill="rgb(255,0,0)" stroke="rgb(255,0,0)" points="177.98771250247955,175.91513961553574 166.32164081931114,154.4764923453331 178.09252455830574,160.9281671643257"></polygon><polygon fill="rgb(255,0,0)" stroke="rgb(255,0,0)" points="104.545329708606,159.10997545719147 91.68587876670063,149.93461886048317 130.192963629961,132.45278242230415"></polygon><polygon fill="rgb(255,255,255)" stroke="rgb(255,255,255)" points="190.81098574399948,155.08097425103188 177.98771250247955,175.91513961553574 178.09252455830574,160.9281671643257"></polygon><polygon fill="rgb(255,0,0)" stroke="rgb(255,0,0)" points="179.24891245365143,118.62408248335123 166.32164081931114,154.4764923453331 166.50247463583946,124.42316012084484"></polygon><polygon fill="rgb(255,0,0)" stroke="rgb(255,0,0)" points="166.32164081931114,154.4764923453331 154.73997831344604,118.02457558363676 166.50247463583946,124.42316012084484"></polygon><polygon fill="rgb(255,0,0)" stroke="rgb(255,0,0)" points="129.0536598712206,159.7158574461937 166.32164081931114,154.4764923453331 140.7798952460289,166.18441772460938"></polygon><polygon fill="rgb(255,0,0)" stroke="rgb(255,0,0)" points="166.32164081931114,154.4764923453331 140.7212334871292,181.18446844816208 140.7798952460289,166.18441772460938"></polygon><polygon fill="rgb(255,0,0)" stroke="rgb(255,0,0)" points="116.20210487395525,180.57512360811234 127.86748132109642,202.05610471963882 116.17397916316986,195.53649175167084"></polygon><polygon fill="rgb(255,255,255)" stroke="rgb(255,255,255)" points="70.78838056325912,22.319848656654358 46.27324363589287,21.734334468841553 59.18603931367397,16.0888152718544"></polygon><polygon fill="rgb(255,0,0)" stroke="rgb(255,0,0)" points="127.86748132109642,202.05610471963882 140.7212334871292,181.18446844816208 140.66272220015526,196.14733737707138"></polygon><polygon fill="rgb(255,0,0)" stroke="rgb(255,0,0)" points="143.07661512494087,96.59649147093296 167.5747542977333,97.19254445284605 154.8159889280796,102.95821093767881"></polygon><polygon fill="rgb(255,0,0)" stroke="rgb(255,0,0)" points="154.73997831344604,118.02457558363676 143.07661512494087,96.59649147093296 154.8159889280796,102.95821093767881"></polygon><polygon fill="rgb(255,0,0)" stroke="rgb(255,0,0)" points="46.27324363589287,21.734334468841553 57.91593922674656,43.16245675086975 46.331766068935394,36.896554470062256"></polygon><polygon fill="rgb(255,0,0)" stroke="rgb(255,0,0)" points="91.68587876670063,149.93461886048317 104.545329708606,159.10997545719147 91.69262039661407,194.92582803964615"></polygon><polygon fill="rgb(255,0,0)" stroke="rgb(255,0,0)" points="80.04439914226532,158.50427863001823 91.68587876670063,149.93461886048317 91.69262039661407,194.92582803964615"></polygon><polygon fill="rgb(255,0,0)" stroke="rgb(255,0,0)" points="167.5747542977333,97.19254445284605 192.08028888702393,97.78877853602171 179.35535740852356,103.55618619173765"></polygon><polygon fill="rgb(255,0,0)" stroke="rgb(255,0,0)" points="57.91593922674656,43.16245675086975 70.78838056325912,22.319848656654358 70.81652995944023,37.483627915382385"></polygon><polygon fill="rgb(255,0,0)" stroke="rgb(255,0,0)" points="82.44188505411148,43.75142729282379 57.91593922674656,43.16245675086975 70.81652995944023,37.483627915382385"></polygon><polygon fill="rgb(255,0,0)" stroke="rgb(255,0,0)" points="192.08028888702393,97.78877853602171 179.24891245365143,118.62408248335123 179.35535740852356,103.55618619173765"></polygon><polygon fill="rgb(255,255,255)" stroke="rgb(255,255,255)" points="144.37825858592987,24.07745671272278 119.84088525176048,23.49140977859497 132.65232415497303,17.84077101945877"></polygon><polygon fill="rgb(255,0,0)" stroke="rgb(255,0,0)" points="57.91593922674656,43.16245675086975 20.42523753643036,48.267368376255035 46.331766068935394,36.896554470062256"></polygon><polygon fill="rgb(255,0,0)" stroke="rgb(255,0,0)" points="55.55086050927639,157.89876371622086 80.04439914226532,158.50427863001823 67.15338009595871,164.3614702820778"></polygon><polygon fill="rgb(255,0,0)" stroke="rgb(255,0,0)" points="57.91593922674656,43.16245675086975 69.56723122298717,64.60639899969101 57.96005257964134,58.3037014901638"></polygon><polygon fill="rgb(255,0,0)" stroke="rgb(255,0,0)" points="80.04439914226532,158.50427863001823 67.18605200946331,179.3569796681404 67.15338009595871,164.3614702820778"></polygon><polygon fill="rgb(255,0,0)" stroke="rgb(255,0,0)" points="131.51602426171303,44.929894626140594 106.97524580359459,44.340573251247406 119.8082272708416,38.65831404924393"></polygon><polygon fill="rgb(255,0,0)" stroke="rgb(255,0,0)" points="119.84088525176048,23.49140977859497 131.51602426171303,44.929894626140594 119.8082272708416,38.65831404924393"></polygon><polygon fill="rgb(255,0,0)" stroke="rgb(255,0,0)" points="54.32210676372051,200.2187666296959 42.68912497162819,178.7481870651245 54.27345138788223,185.2458924651146"></polygon><polygon fill="rgb(255,0,0)" stroke="rgb(255,0,0)" points="131.51602426171303,44.929894626140594 144.37825858592987,24.07745671272278 144.31516626477242,39.24592024087906"></polygon><polygon fill="rgb(255,0,0)" stroke="rgb(255,0,0)" points="104.545329708606,159.10997545719147 129.0536598712206,159.7158574461937 116.23030164092779,165.576586663723"></polygon><polygon fill="rgb(255,0,0)" stroke="rgb(255,0,0)" points="116.20210487395525,180.57512360811234 104.545329708606,159.10997545719147 116.23030164092779,165.576586663723"></polygon><polygon fill="rgb(255,0,0)" stroke="rgb(255,0,0)" points="32.07793951034546,69.74129709601402 57.91593922674656,43.16245675086975 57.96005257964134,58.3037014901638"></polygon><polygon fill="rgb(255,0,0)" stroke="rgb(255,0,0)" points="67.18605200946331,179.3569796681404 54.32210676372051,200.2187666296959 54.27345138788223,185.2458924651146"></polygon><polygon fill="rgb(255,0,0)" stroke="rgb(255,0,0)" points="19.26492065191269,105.74482784047723 -5.263808906078339,105.1461911201477 7.7353604435920715,99.37415198236704"></polygon><polygon fill="rgb(255,0,0)" stroke="rgb(255,0,0)" points="118.64818067848682,65.79143470525742 131.51602426171303,44.929894626140594 131.4688736051321,60.07580414414406"></polygon><polygon fill="rgb(255,0,0)" stroke="rgb(255,0,0)" points="43.801073491573334,106.34364525601268 19.26492065191269,105.74482784047723 32.23029512166977,99.97104468941689"></polygon><polygon fill="rgb(255,0,0)" stroke="rgb(255,0,0)" points="7.522125005722046,69.14749285578728 19.26492065191269,105.74482784047723 7.7353604435920715,99.37415198236704"></polygon><polygon fill="rgb(255,255,255)" stroke="rgb(255,255,255)" points="-5.263808906078339,105.1461911201477 6.370006054639816,126.62382145226002 -5.14131361246109,120.21816178411245"></polygon><polygon fill="rgb(255,0,0)" stroke="rgb(255,0,0)" points="167.8512046635151,51.81312644481659 131.51602426171303,44.929894626140594 144.31516626477242,39.24592024087906"></polygon><polygon fill="rgb(255,0,0)" stroke="rgb(255,0,0)" points="127.86748132109642,202.05610471963882 116.20210487395525,180.57512360811234 127.91018190979958,187.07871520519257"></polygon><polygon fill="rgb(255,0,0)" stroke="rgb(255,0,0)" points="19.26492065191269,105.74482784047723 32.07793951034546,69.74129709601402 32.23029512166977,99.97104468941689"></polygon><polygon fill="rgb(255,0,0)" stroke="rgb(255,0,0)" points="6.370006054639816,126.62382145226002 19.26492065191269,105.74482784047723 19.3570094704628,120.81833136826754"></polygon><polygon fill="rgb(255,0,0)" stroke="rgb(255,0,0)" points="19.26492065191269,105.74482784047723 30.90956401824951,127.22592873871326 19.3570094704628,120.81833136826754"></polygon><polygon fill="rgb(255,0,0)" stroke="rgb(255,0,0)" points="140.7212334871292,181.18446844816208 127.86748132109642,202.05610471963882 127.91018190979958,187.07871520519257"></polygon><polygon fill="rgb(255,0,0)" stroke="rgb(255,0,0)" points="131.51602426171303,44.929894626140594 154.96857860684395,72.7130015194416 131.4688736051321,60.07580414414406"></polygon><polygon fill="rgb(255,0,0)" stroke="rgb(255,0,0)" points="57.91593922674656,43.16245675086975 46.27324363589287,21.734334468841553 57.871714413166046,27.9835786819458"></polygon><polygon fill="rgb(255,255,255)" stroke="rgb(255,255,255)" points="46.27324363589287,21.734334468841553 70.78838056325912,22.319848656654358 57.871714413166046,27.9835786819458"></polygon><polygon fill="rgb(255,0,0)" stroke="rgb(255,0,0)" points="20.42523753643036,48.267368376255035 -4.1197429895401,47.677033483982086 8.88627004623413,41.98505491018295"></polygon><polygon fill="rgb(255,0,0)" stroke="rgb(255,0,0)" points="70.78838056325912,22.319848656654358 57.91593922674656,43.16245675086975 57.871714413166046,27.9835786819458"></polygon><polygon fill="rgb(255,0,0)" stroke="rgb(255,0,0)" points="-4.1197429895401,47.677033483982086 7.522125005722046,69.14749285578728 -3.9985740780830383,62.83019030094147"></polygon><polygon fill="rgb(255,0,0)" stroke="rgb(255,0,0)" points="166.5932314991951,109.34045164426789 142.01993438601494,108.74072763114236 154.8159889280796,102.95821093767881"></polygon><polygon fill="rgb(255,0,0)" stroke="rgb(255,0,0)" points="57.91593922674656,43.16245675086975 82.44188505411148,43.75142729282379 69.53747679293156,49.448570907115936"></polygon><polygon fill="rgb(255,0,0)" stroke="rgb(255,0,0)" points="69.56723122298717,64.60639899969101 57.91593922674656,43.16245675086975 69.53747679293156,49.448570907115936"></polygon><polygon fill="rgb(255,0,0)" stroke="rgb(255,0,0)" points="131.51602426171303,44.929894626140594 119.84088525176048,23.49140977859497 131.56329195201397,29.74632579088211"></polygon><polygon fill="rgb(255,255,255)" stroke="rgb(255,255,255)" points="119.84088525176048,23.49140977859497 144.37825858592987,24.07745671272278 131.56329195201397,29.74632579088211"></polygon><polygon fill="rgb(255,0,0)" stroke="rgb(255,0,0)" points="191.17396861314774,109.94035724084824 166.5932314991951,109.34045164426789 179.35535740852356,103.55618619173765"></polygon><polygon fill="rgb(255,0,0)" stroke="rgb(255,0,0)" points="154.96857860684395,72.7130015194416 166.5932314991951,109.34045164426789 154.8159889280796,102.95821093767881"></polygon><polygon fill="rgb(255,0,0)" stroke="rgb(255,0,0)" points="54.22467619180679,170.23577803373337 29.66345027089119,169.62671905755997 42.62604379653931,163.75418496131897"></polygon><polygon fill="rgb(255,0,0)" stroke="rgb(255,0,0)" points="42.56281214952469,148.72290685772896 54.22467619180679,170.23577803373337 42.62604379653931,163.75418496131897"></polygon><polygon fill="rgb(255,0,0)" stroke="rgb(255,0,0)" points="144.37825858592987,24.07745671272278 131.51602426171303,44.929894626140594 131.56329195201397,29.74632579088211"></polygon><polygon fill="rgb(255,0,0)" stroke="rgb(255,0,0)" points="20.42523753643036,48.267368376255035 57.91593922674656,43.16245675086975 32.00147747993469,54.569971680641174"></polygon><polygon fill="rgb(255,0,0)" stroke="rgb(255,0,0)" points="57.91593922674656,43.16245675086975 32.07793951034546,69.74129709601402 32.00147747993469,54.569971680641174"></polygon><polygon fill="rgb(255,0,0)" stroke="rgb(255,0,0)" points="54.22467619180679,170.23577803373337 67.12062737345695,149.32867190241814 67.15338009595871,164.3614702820778"></polygon><polygon fill="rgb(255,0,0)" stroke="rgb(255,0,0)" points="166.5932314991951,109.34045164426789 179.5690442621708,73.30788424611092 179.35535740852356,103.55618619173765"></polygon><polygon fill="rgb(255,0,0)" stroke="rgb(255,0,0)" points="153.71877551078796,130.23919387161732 166.5932314991951,109.34045164426789 166.50247463583946,124.42316012084484"></polygon><polygon fill="rgb(255,0,0)" stroke="rgb(255,0,0)" points="106.97524580359459,44.340573251247406 131.51602426171303,44.929894626140594 118.67945654690266,50.630488097667694"></polygon><polygon fill="rgb(255,0,0)" stroke="rgb(255,0,0)" points="166.5932314991951,109.34045164426789 178.30292889475822,130.84239426255226 166.50247463583946,124.42316012084484"></polygon><polygon fill="rgb(255,255,255)" stroke="rgb(255,255,255)" points="29.66345027089119,169.62671905755997 41.32309067249298,191.15202206373215 29.742715537548065,184.63531970977783"></polygon><polygon fill="rgb(255,0,0)" stroke="rgb(255,0,0)" points="131.51602426171303,44.929894626140594 118.64818067848682,65.79143470525742 118.67945654690266,50.630488097667694"></polygon><polygon fill="rgb(255,255,255)" stroke="rgb(255,255,255)" points="178.30292889475822,130.84239426255226 191.17396861314774,109.94035724084824 191.05267709493637,125.02460147440434"></polygon><polygon fill="rgb(255,0,0)" stroke="rgb(255,0,0)" points="41.32309067249298,191.15202206373215 54.22467619180679,170.23577803373337 54.27345138788223,185.2458924651146"></polygon><polygon fill="rgb(255,0,0)" stroke="rgb(255,0,0)" points="-5.263808906078339,105.1461911201477 19.26492065191269,105.74482784047723 6.26162725687027,111.53549726307392"></polygon><polygon fill="rgb(255,255,255)" stroke="rgb(255,255,255)" points="6.370006054639816,126.62382145226002 -5.263808906078339,105.1461911201477 6.26162725687027,111.53549726307392"></polygon><polygon fill="rgb(255,255,255)" stroke="rgb(255,255,255)" points="130.46754424273968,41.72531509399414 56.54928632080555,39.95167917013168 95.31092666555196,22.905538260936737"></polygon><polygon fill="rgb(255,0,0)" stroke="rgb(255,0,0)" points="116.25856667757034,150.54074773192406 127.95298838615417,172.06406593322754 116.23030164092779,165.576586663723"></polygon><polygon fill="rgb(255,0,0)" stroke="rgb(255,0,0)" points="19.26492065191269,105.74482784047723 6.370006054639816,126.62382145226002 6.26162725687027,111.53549726307392"></polygon><polygon fill="rgb(255,0,0)" stroke="rgb(255,0,0)" points="90.4709172360599,177.34953957796097 54.22467619180679,170.23577803373337 67.15338009595871,164.3614702820778"></polygon><polygon fill="rgb(255,0,0)" stroke="rgb(255,0,0)" points="19.26492065191269,105.74482784047723 43.801073491573334,106.34364525601268 30.831697583198547,112.13606742210686"></polygon><polygon fill="rgb(255,0,0)" stroke="rgb(255,0,0)" points="30.90956401824951,127.22592873871326 19.26492065191269,105.74482784047723 30.831697583198547,112.13606742210686"></polygon><polygon fill="rgb(255,0,0)" stroke="rgb(255,0,0)" points="127.95298838615417,172.06406593322754 140.83869633078575,151.14706176519394 140.7798952460289,166.18441772460938"></polygon><polygon fill="rgb(255,0,0)" stroke="rgb(255,0,0)" points="152.54397988319397,172.67386555671692 127.95298838615417,172.06406593322754 140.7798952460289,166.18441772460938"></polygon><polygon fill="rgb(255,0,0)" stroke="rgb(255,0,0)" points="192.44824290275574,52.4047087430954 167.8512046635151,51.81312644481659 180.61984544992447,46.109083116054535"></polygon><polygon fill="rgb(255,0,0)" stroke="rgb(255,0,0)" points="131.51602426171303,44.929894626140594 167.8512046635151,51.81312644481659 155.04515767097473,57.533876568078995"></polygon><polygon fill="rgb(255,0,0)" stroke="rgb(255,0,0)" points="154.96857860684395,72.7130015194416 131.51602426171303,44.929894626140594 155.04515767097473,57.533876568078995"></polygon><polygon fill="rgb(255,0,0)" stroke="rgb(255,0,0)" points="32.07793951034546,69.74129709601402 19.26492065191269,105.74482784047723 19.080051958560944,75.48520544171333"></polygon><polygon fill="rgb(255,0,0)" stroke="rgb(255,0,0)" points="19.26492065191269,105.74482784047723 7.522125005722046,69.14749285578728 19.080051958560944,75.48520544171333"></polygon><polygon fill="rgb(255,0,0)" stroke="rgb(255,0,0)" points="54.22467619180679,170.23577803373337 77.55445101857185,198.3043167591095 54.27345138788223,185.2458924651146"></polygon><polygon fill="rgb(255,0,0)" stroke="rgb(255,0,0)" points="127.95298838615417,172.06406593322754 90.4709172360599,177.34953957796097 116.23030164092779,165.576586663723"></polygon><polygon fill="rgb(255,0,0)" stroke="rgb(255,0,0)" points="127.95298838615417,172.06406593322754 139.65606501698494,193.603317797184 127.91018190979958,187.07871520519257"></polygon><polygon fill="rgb(255,0,0)" stroke="rgb(255,0,0)" points="56.68696255981922,85.47047124803066 68.25053499639034,61.487309008836746 68.28198362886906,76.67683225870132"></polygon><polygon fill="rgb(255,0,0)" stroke="rgb(255,0,0)" points="56.54928632080555,39.95167917013168 68.25053499639034,61.487309008836746 56.68696255981922,85.47047124803066"></polygon><polygon fill="rgb(255,255,255)" stroke="rgb(255,255,255)" points="139.65606501698494,193.603317797184 152.54397988319397,172.67386555671692 152.4706108868122,187.6900286078453"></polygon><polygon fill="rgb(255,0,0)" stroke="rgb(255,0,0)" points="179.5690442621708,73.30788424611092 192.44824290275574,52.4047087430954 192.325290620327,67.57032987475395"></polygon><polygon fill="rgb(255,0,0)" stroke="rgb(255,0,0)" points="56.68696255981922,85.47047124803066 55.36175352334976,97.60782101750374 17.729923099279404,102.80306725203991"></polygon><polygon fill="rgb(255,0,0)" stroke="rgb(255,0,0)" points="-4.1197429895401,47.677033483982086 20.42523753643036,48.267368376255035 7.415111601352692,53.97773319482803"></polygon><polygon fill="rgb(255,0,0)" stroke="rgb(255,0,0)" points="7.522125005722046,69.14749285578728 -4.1197429895401,47.677033483982086 7.415111601352692,53.97773319482803"></polygon><polygon fill="rgb(255,0,0)" stroke="rgb(255,0,0)" points="55.36175352334976,97.60782101750374 56.68696255981922,85.47047124803066 91.67908663116395,104.60651138797402"></polygon><polygon fill="rgb(255,0,0)" stroke="rgb(255,0,0)" points="56.68696255981922,85.47047124803066 68.28198362886906,76.67683225870132 91.67908663116395,104.60651138797402"></polygon><polygon fill="rgb(255,0,0)" stroke="rgb(255,0,0)" points="102.1754749007523,198.91902804374695 127.95298838615417,172.06406593322754 127.91018190979958,187.07871520519257"></polygon><polygon fill="rgb(255,0,0)" stroke="rgb(255,0,0)" points="54.22467619180679,170.23577803373337 42.56281214952469,148.72290685772896 54.17577838897705,155.1882933974266"></polygon><polygon fill="rgb(255,0,0)" stroke="rgb(255,0,0)" points="142.01993438601494,108.74072763114236 166.5932314991951,109.34045164426789 153.79374954104424,115.14164935424924"></polygon><polygon fill="rgb(255,0,0)" stroke="rgb(255,0,0)" points="130.32974261045456,87.25814698636532 117.5137672573328,77.86917698383331 130.46754424273968,41.72531509399414"></polygon><polygon fill="rgb(255,0,0)" stroke="rgb(255,0,0)" points="67.12062737345695,149.32867190241814 54.22467619180679,170.23577803373337 54.17577838897705,155.1882933974266"></polygon><polygon fill="rgb(255,0,0)" stroke="rgb(255,0,0)" points="166.5932314991951,109.34045164426789 153.71877551078796,130.23919387161732 153.79374954104424,115.14164935424924"></polygon><polygon fill="rgb(255,0,0)" stroke="rgb(255,0,0)" points="130.32974261045456,87.25814698636532 104.61423818767071,83.63692735135555 117.5137672573328,77.86917698383331"></polygon><polygon fill="rgb(255,0,0)" stroke="rgb(255,0,0)" points="166.5932314991951,109.34045164426789 191.17396861314774,109.94035724084824 178.4085267484188,115.74331241473556"></polygon><polygon fill="rgb(255,0,0)" stroke="rgb(255,0,0)" points="178.30292889475822,130.84239426255226 166.5932314991951,109.34045164426789 178.4085267484188,115.74331241473556"></polygon><polygon fill="rgb(255,0,0)" stroke="rgb(255,0,0)" points="130.32974261045456,87.25814698636532 129.2309102267027,99.40653175115585 91.67908663116395,104.60651138797402"></polygon><polygon fill="rgb(255,0,0)" stroke="rgb(255,0,0)" points="91.67908663116395,104.60651138797402 104.61423818767071,83.63692735135555 130.32974261045456,87.25814698636532"></polygon><polygon fill="rgb(255,0,0)" stroke="rgb(255,0,0)" points="29.66345027089119,169.62671905755997 54.22467619180679,170.23577803373337 41.25811466574669,176.12728959321976"></polygon><polygon fill="rgb(255,255,255)" stroke="rgb(255,255,255)" points="41.32309067249298,191.15202206373215 29.66345027089119,169.62671905755997 41.25811466574669,176.12728959321976"></polygon><polygon fill="rgb(255,255,255)" stroke="rgb(255,255,255)" points="191.17396861314774,109.94035724084824 178.30292889475822,130.84239426255226 178.4085267484188,115.74331241473556"></polygon><polygon fill="rgb(255,0,0)" stroke="rgb(255,0,0)" points="129.2309102267027,99.40653175115585 130.32974261045456,87.25814698636532 165.69568875432014,106.41159985028207"></polygon><polygon fill="rgb(255,0,0)" stroke="rgb(255,0,0)" points="54.22467619180679,170.23577803373337 41.32309067249298,191.15202206373215 41.25811466574669,176.12728959321976"></polygon><polygon fill="rgb(255,0,0)" stroke="rgb(255,0,0)" points="179.5690442621708,73.30788424611092 166.5932314991951,109.34045164426789 166.77542513608932,79.06224936246872"></polygon><polygon fill="rgb(255,0,0)" stroke="rgb(255,0,0)" points="166.5932314991951,109.34045164426789 154.96857860684395,72.7130015194416 166.77542513608932,79.06224936246872"></polygon><polygon fill="rgb(255,0,0)" stroke="rgb(255,0,0)" points="127.95298838615417,172.06406593322754 116.25856667757034,150.54074773192406 127.99590075016022,157.01201397180557"></polygon><polygon fill="rgb(255,255,255)" stroke="rgb(255,255,255)" points="17.729923099279404,102.80306725203991 52.83959326148033,167.57044821977615 18.01242020726204,148.11732697486877"></polygon><polygon fill="rgb(255,0,0)" stroke="rgb(255,0,0)" points="140.83869633078575,151.14706176519394 127.95298838615417,172.06406593322754 127.99590075016022,157.01201397180557"></polygon><polygon fill="rgb(255,0,0)" stroke="rgb(255,0,0)" points="54.22467619180679,170.23577803373337 90.4709172360599,177.34953957796097 77.53456085920334,183.2619127035141"></polygon><polygon fill="rgb(255,0,0)" stroke="rgb(255,0,0)" points="77.55445101857185,198.3043167591095 54.22467619180679,170.23577803373337 77.53456085920334,183.2619127035141"></polygon><polygon fill="rgb(255,0,0)" stroke="rgb(255,0,0)" points="91.68587876670063,149.93461886048317 78.75666876137257,140.7094862163067 91.67908663116395,104.60651138797402"></polygon><polygon fill="rgb(255,0,0)" stroke="rgb(255,0,0)" points="91.68587876670063,149.93461886048317 103.4064077027142,126.19012209773064 103.39405507221818,141.3158587217331"></polygon><polygon fill="rgb(255,0,0)" stroke="rgb(255,0,0)" points="91.67908663116395,104.60651138797402 103.4064077027142,126.19012209773064 91.68587876670063,149.93461886048317"></polygon><polygon fill="rgb(255,0,0)" stroke="rgb(255,0,0)" points="91.68587876670063,149.93461886048317 65.79176799952984,146.5732657313347 78.75666876137257,140.7094862163067"></polygon><polygon fill="rgb(255,0,0)" stroke="rgb(255,0,0)" points="127.95298838615417,172.06406593322754 152.54397988319397,172.67386555671692 139.71357594430447,178.57252371311188"></polygon><polygon fill="rgb(255,0,0)" stroke="rgb(255,0,0)" points="139.65606501698494,193.603317797184 127.95298838615417,172.06406593322754 139.71357594430447,178.57252371311188"></polygon><polygon fill="rgb(255,0,0)" stroke="rgb(255,0,0)" points="167.8512046635151,51.81312644481659 192.44824290275574,52.4047087430954 179.6762861609459,58.12719678878784"></polygon><polygon fill="rgb(255,0,0)" stroke="rgb(255,0,0)" points="52.83959326148033,167.57044821977615 65.79176799952984,146.5732657313347 91.68587876670063,149.93461886048317"></polygon><polygon fill="rgb(255,255,255)" stroke="rgb(255,255,255)" points="152.54397988319397,172.67386555671692 139.65606501698494,193.603317797184 139.71357594430447,178.57252371311188"></polygon><polygon fill="rgb(255,0,0)" stroke="rgb(255,0,0)" points="192.44824290275574,52.4047087430954 179.5690442621708,73.30788424611092 179.6762861609459,58.12719678878784"></polygon><polygon fill="rgb(255,0,0)" stroke="rgb(255,0,0)" points="91.68587876670063,149.93461886048317 103.39405507221818,141.3158587217331 126.88718737661839,169.40545392036438"></polygon><polygon fill="rgb(255,0,0)" stroke="rgb(255,0,0)" points="90.4709172360599,177.34953957796097 127.95298838615417,172.06406593322754 102.18629842996597,183.8751037120819"></polygon><polygon fill="rgb(255,0,0)" stroke="rgb(255,0,0)" points="127.95298838615417,172.06406593322754 102.1754749007523,198.91902804374695 102.18629842996597,183.8751037120819"></polygon><polygon fill="rgb(255,0,0)" stroke="rgb(255,0,0)" points="77.55445101857185,198.3043167591095 89.25678434595466,219.8862987756729 77.57429380714893,213.30928564071655"></polygon><polygon fill="rgb(255,255,255)" stroke="rgb(255,255,255)" points="31.9248203933239,39.36083102226257 7.3078306913375854,38.77015829086304 20.334302335977554,33.074931263923645"></polygon><polygon fill="rgb(255,0,0)" stroke="rgb(255,0,0)" points="89.25678434595466,219.8862987756729 102.1754749007523,198.91902804374695 102.1646778434515,213.92550420761108"></polygon><polygon fill="rgb(255,255,255)" stroke="rgb(255,255,255)" points="126.88718737661839,169.40545392036438 165.69568875432014,106.41159985028207 165.42627155780792,151.75356096029282"></polygon><polygon fill="rgb(255,0,0)" stroke="rgb(255,0,0)" points="18.987272083759308,60.298810452222824 -5.633145034313202,59.704830795526505 7.415111601352692,53.97773319482803"></polygon><polygon fill="rgb(255,0,0)" stroke="rgb(255,0,0)" points="7.3078306913375854,38.77015829086304 18.987272083759308,60.298810452222824 7.415111601352692,53.97773319482803"></polygon><polygon fill="rgb(255,0,0)" stroke="rgb(255,0,0)" points="18.987272083759308,60.298810452222824 31.9248203933239,39.36083102226257 32.00147747993469,54.569971680641174"></polygon><polygon fill="rgb(255,255,255)" stroke="rgb(255,255,255)" points="-5.633145034313202,59.704830795526505 6.044055998325348,81.24596026539803 -5.5097246170043945,74.88966652750969"></polygon><polygon fill="rgb(255,0,0)" stroke="rgb(255,0,0)" points="6.044055998325348,81.24596026539803 18.987272083759308,60.298810452222824 19.080051958560944,75.48520544171333"></polygon><polygon fill="rgb(255,0,0)" stroke="rgb(255,0,0)" points="55.26649086177349,67.23645386099815 18.987272083759308,60.298810452222824 32.00147747993469,54.569971680641174"></polygon><polygon fill="rgb(255,255,255)" stroke="rgb(255,255,255)" points="179.78380113840103,42.90863561630249 155.12192621827126,42.31688439846039 167.94381177425385,36.61128830909729"></polygon><polygon fill="rgb(255,0,0)" stroke="rgb(255,0,0)" points="18.987272083759308,60.298810452222824 42.30829167366028,88.22225864231586 19.080051958560944,75.48520544171333"></polygon><polygon fill="rgb(255,0,0)" stroke="rgb(255,0,0)" points="79.9604664593935,83.03891311585903 91.67908663116395,104.60651138797402 68.28198362886906,76.67683225870132"></polygon><polygon fill="rgb(255,0,0)" stroke="rgb(255,0,0)" points="42.37215864658356,103.40403270721436 17.729923099279404,102.80306725203991 55.36175352334976,97.60782101750374"></polygon><polygon fill="rgb(255,0,0)" stroke="rgb(255,0,0)" points="117.54372231662273,62.676528722047806 130.46754424273968,41.72531509399414 117.5137672573328,77.86917698383331"></polygon><polygon fill="rgb(255,0,0)" stroke="rgb(255,0,0)" points="155.12192621827126,42.31688439846039 166.86685633659363,63.86647284030914 155.04515767097473,57.533876568078995"></polygon><polygon fill="rgb(255,0,0)" stroke="rgb(255,0,0)" points="55.36175352334976,97.60782101750374 91.67908663116395,104.60651138797402 67.02187599241734,104.0051804818213"></polygon><polygon fill="rgb(255,0,0)" stroke="rgb(255,0,0)" points="89.25678434595466,219.8862987756729 77.55445101857185,198.3043167591095 89.2514892667532,204.86523705720901"></polygon><polygon fill="rgb(255,0,0)" stroke="rgb(255,0,0)" points="166.86685633659363,63.86647284030914 179.78380113840103,42.90863561630249 179.6762861609459,58.12719678878784"></polygon><polygon fill="rgb(255,0,0)" stroke="rgb(255,0,0)" points="191.5396711230278,64.46171614527702 166.86685633659363,63.86647284030914 179.6762861609459,58.12719678878784"></polygon><polygon fill="rgb(255,0,0)" stroke="rgb(255,0,0)" points="102.1754749007523,198.91902804374695 89.25678434595466,219.8862987756729 89.2514892667532,204.86523705720901"></polygon><polygon fill="rgb(255,0,0)" stroke="rgb(255,0,0)" points="166.86685633659363,63.86647284030914 129.32020138204098,69.02580255270004 155.04515767097473,57.533876568078995"></polygon><polygon fill="rgb(255,0,0)" stroke="rgb(255,0,0)" points="18.987272083759308,60.298810452222824 7.3078306913375854,38.77015829086304 18.894263714551926,45.074496269226074"></polygon><polygon fill="rgb(255,255,255)" stroke="rgb(255,255,255)" points="7.3078306913375854,38.77015829086304 31.9248203933239,39.36083102226257 18.894263714551926,45.074496269226074"></polygon><polygon fill="rgb(255,0,0)" stroke="rgb(255,0,0)" points="166.86685633659363,63.86647284030914 178.62050825357437,85.43206153810024 166.77542513608932,79.06224936246872"></polygon><polygon fill="rgb(255,0,0)" stroke="rgb(255,0,0)" points="116.34378951787949,105.20802461355925 91.67908663116395,104.60651138797402 129.2309102267027,99.40653175115585"></polygon><polygon fill="rgb(255,0,0)" stroke="rgb(255,0,0)" points="31.9248203933239,39.36083102226257 18.987272083759308,60.298810452222824 18.894263714551926,45.074496269226074"></polygon><polygon fill="rgb(255,0,0)" stroke="rgb(255,0,0)" points="129.2309102267027,99.40653175115585 165.69568875432014,106.41159985028207 141.01598569750786,105.80972076766193"></polygon><polygon fill="rgb(255,255,255)" stroke="rgb(255,255,255)" points="178.62050825357437,85.43206153810024 191.5396711230278,64.46171614527702 191.41746562719345,79.65905517339706"></polygon><polygon fill="rgb(255,0,0)" stroke="rgb(255,0,0)" points="-5.633145034313202,59.704830795526505 18.987272083759308,60.298810452222824 5.9348635375499725,66.04446321725845"></polygon><polygon fill="rgb(255,255,255)" stroke="rgb(255,255,255)" points="6.044055998325348,81.24596026539803 -5.633145034313202,59.704830795526505 5.9348635375499725,66.04446321725845"></polygon><polygon fill="rgb(255,0,0)" stroke="rgb(255,0,0)" points="141.07537752389908,90.62171393632889 166.86685633659363,63.86647284030914 166.77542513608932,79.06224936246872"></polygon><polygon fill="rgb(255,0,0)" stroke="rgb(255,0,0)" points="78.7382638156414,125.58528935909271 91.67908663116395,104.60651138797402 78.75666876137257,140.7094862163067"></polygon><polygon fill="rgb(255,0,0)" stroke="rgb(255,0,0)" points="18.987272083759308,60.298810452222824 6.044055998325348,81.24596026539803 5.9348635375499725,66.04446321725845"></polygon><polygon fill="rgb(255,0,0)" stroke="rgb(255,0,0)" points="68.25053499639034,61.487309008836746 56.54928632080555,39.95167917013168 79.94355369359255,67.83272367715836"></polygon><polygon fill="rgb(255,0,0)" stroke="rgb(255,0,0)" points="115.14243838191032,147.7897627055645 126.88718737661839,169.40545392036438 103.39405507221818,141.3158587217331"></polygon><polygon fill="rgb(255,0,0)" stroke="rgb(255,0,0)" points="79.94355369359255,67.83272367715836 55.26649086177349,67.23645386099815 68.25053499639034,61.487309008836746"></polygon><polygon fill="rgb(255,0,0)" stroke="rgb(255,0,0)" points="18.987272083759308,60.298810452222824 55.26649086177349,67.23645386099815 42.24426308274269,73.00250691175461"></polygon><polygon fill="rgb(255,0,0)" stroke="rgb(255,0,0)" points="42.30829167366028,88.22225864231586 18.987272083759308,60.298810452222824 42.24426308274269,73.00250691175461"></polygon><polygon fill="rgb(255,0,0)" stroke="rgb(255,0,0)" points="104.62812270596623,68.42917215824127 130.46754424273968,41.72531509399414 117.54372231662273,62.676528722047806"></polygon><polygon fill="rgb(255,0,0)" stroke="rgb(255,0,0)" points="166.86685633659363,63.86647284030914 155.12192621827126,42.31688439846039 166.95852160453796,48.63272839784622"></polygon><polygon fill="rgb(255,255,255)" stroke="rgb(255,255,255)" points="155.12192621827126,42.31688439846039 179.78380113840103,42.90863561630249 166.95852160453796,48.63272839784622"></polygon><polygon fill="rgb(255,0,0)" stroke="rgb(255,0,0)" points="91.6722434675321,58.93770858645439 79.94355369359255,67.83272367715836 56.54928632080555,39.95167917013168"></polygon><polygon fill="rgb(255,255,255)" stroke="rgb(255,255,255)" points="56.54928632080555,39.95167917013168 130.46754424273968,41.72531509399414 91.6722434675321,58.93770858645439"></polygon><polygon fill="rgb(255,0,0)" stroke="rgb(255,0,0)" points="79.94355369359255,67.83272367715836 91.67908663116395,104.60651138797402 79.9604664593935,83.03891311585903"></polygon><polygon fill="rgb(255,0,0)" stroke="rgb(255,0,0)" points="89.24618060328066,189.80664920806885 64.56020544469357,189.19165205955505 77.53456085920334,183.2619127035141"></polygon><polygon fill="rgb(255,0,0)" stroke="rgb(255,0,0)" points="129.32020138204098,69.02580255270004 104.62812270596623,68.42917215824127 117.54372231662273,62.676528722047806"></polygon><polygon fill="rgb(255,0,0)" stroke="rgb(255,0,0)" points="66.98879724740982,88.82184837758541 79.94355369359255,67.83272367715836 79.9604664593935,83.03891311585903"></polygon><polygon fill="rgb(255,0,0)" stroke="rgb(255,0,0)" points="179.78380113840103,42.90863561630249 166.86685633659363,63.86647284030914 166.95852160453796,48.63272839784622"></polygon><polygon fill="rgb(255,0,0)" stroke="rgb(255,0,0)" points="42.30829167366028,88.22225864231586 54.02835212647915,109.82018751837313 42.37215864658356,103.40403270721436"></polygon><polygon fill="rgb(255,0,0)" stroke="rgb(255,0,0)" points="104.61423818767071,83.63692735135555 91.67908663116395,104.60651138797402 104.62812270596623,68.42917215824127"></polygon><polygon fill="rgb(255,0,0)" stroke="rgb(255,0,0)" points="113.93966751545668,190.42183476686478 89.24618060328066,189.80664920806885 102.18629842996597,183.8751037120819"></polygon><polygon fill="rgb(255,0,0)" stroke="rgb(255,0,0)" points="77.494628675282,153.06423059105873 89.24618060328066,189.80664920806885 77.53456085920334,183.2619127035141"></polygon><polygon fill="rgb(255,255,255)" stroke="rgb(255,255,255)" points="64.56020544469357,189.19165205955505 76.28952688723803,210.82892274856567 64.59631313383579,204.24871963262558"></polygon><polygon fill="rgb(255,0,0)" stroke="rgb(255,0,0)" points="104.62812270596623,68.42917215824127 116.37233877927065,90.02157683670521 104.61423818767071,83.63692735135555"></polygon><polygon fill="rgb(255,0,0)" stroke="rgb(255,0,0)" points="67.02187599241734,104.0051804818213 91.67908663116395,104.60651138797402 54.02835212647915,109.82018751837313"></polygon><polygon fill="rgb(255,0,0)" stroke="rgb(255,0,0)" points="54.02835212647915,109.82018751837313 66.98879724740982,88.82184837758541 67.02187599241734,104.0051804818213"></polygon><polygon fill="rgb(255,0,0)" stroke="rgb(255,0,0)" points="166.86685633659363,63.86647284030914 191.5396711230278,64.46171614527702 178.72689747810364,70.21960583329201"></polygon><polygon fill="rgb(255,0,0)" stroke="rgb(255,0,0)" points="178.62050825357437,85.43206153810024 166.86685633659363,63.86647284030914 178.72689747810364,70.21960583329201"></polygon><polygon fill="rgb(255,0,0)" stroke="rgb(255,0,0)" points="89.24618060328066,189.80664920806885 102.20802769064903,153.67436155676842 102.18629842996597,183.8751037120819"></polygon><polygon fill="rgb(255,0,0)" stroke="rgb(255,0,0)" points="104.62812270596623,68.42917215824127 91.6722434675321,58.93770858645439 130.46754424273968,41.72531509399414"></polygon><polygon fill="rgb(255,0,0)" stroke="rgb(255,0,0)" points="76.28952688723803,210.82892274856567 89.24618060328066,189.80664920806885 89.2514892667532,204.86523705720901"></polygon><polygon fill="rgb(255,0,0)" stroke="rgb(255,0,0)" points="89.24618060328066,189.80664920806885 100.98646246269345,211.4474412202835 89.2514892667532,204.86523705720901"></polygon><polygon fill="rgb(255,255,255)" stroke="rgb(255,255,255)" points="191.5396711230278,64.46171614527702 178.62050825357437,85.43206153810024 178.72689747810364,70.21960583329201"></polygon><polygon fill="rgb(255,0,0)" stroke="rgb(255,0,0)" points="65.7571288049221,131.43417146801949 91.67908663116395,104.60651138797402 78.7382638156414,125.58528935909271"></polygon><polygon fill="rgb(255,255,255)" stroke="rgb(255,255,255)" points="100.98646246269345,211.4474412202835 113.93966751545668,190.42183476686478 113.91415555775166,205.48194289207458"></polygon><polygon fill="rgb(255,0,0)" stroke="rgb(255,0,0)" points="103.4064077027142,126.19012209773064 91.67908663116395,104.60651138797402 115.16950242966413,132.64758241176605"></polygon><polygon fill="rgb(255,0,0)" stroke="rgb(255,0,0)" points="129.32020138204098,69.02580255270004 166.86685633659363,63.86647284030914 141.13491982221603,75.39569106698036"></polygon><polygon fill="rgb(255,0,0)" stroke="rgb(255,0,0)" points="166.86685633659363,63.86647284030914 141.07537752389908,90.62171393632889 141.13491982221603,75.39569106698036"></polygon><polygon fill="rgb(255,0,0)" stroke="rgb(255,0,0)" points="116.37233877927065,90.02157683670521 128.12528431415558,111.63003496453166 116.34378951787949,105.20802461355925"></polygon><polygon fill="rgb(255,0,0)" stroke="rgb(255,0,0)" points="17.729923099279404,102.80306725203991 42.37215864658356,103.40403270721436 52.68668591976166,122.10826774686575"></polygon><polygon fill="rgb(255,255,255)" stroke="rgb(255,255,255)" points="52.83959326148033,167.57044821977615 17.729923099279404,102.80306725203991 52.68668591976166,122.10826774686575"></polygon><polygon fill="rgb(255,0,0)" stroke="rgb(255,0,0)" points="90.4595552124083,132.04078435897827 65.7571288049221,131.43417146801949 78.7382638156414,125.58528935909271"></polygon><polygon fill="rgb(255,0,0)" stroke="rgb(255,0,0)" points="141.01598569750786,105.80972076766193 165.69568875432014,106.41159985028207 128.12528431415558,111.63003496453166"></polygon><polygon fill="rgb(255,0,0)" stroke="rgb(255,0,0)" points="128.12528431415558,111.63003496453166 141.07537752389908,90.62171393632889 141.01598569750786,105.80972076766193"></polygon><polygon fill="rgb(255,0,0)" stroke="rgb(255,0,0)" points="52.68668591976166,122.10826774686575 42.37215864658356,103.40403270721436 54.02835212647915,109.82018751837313"></polygon><polygon fill="rgb(255,0,0)" stroke="rgb(255,0,0)" points="65.79176799952984,146.5732657313347 52.83959326148033,167.57044821977615 65.7571288049221,131.43417146801949"></polygon><polygon fill="rgb(255,0,0)" stroke="rgb(255,0,0)" points="115.16950242966413,132.64758241176605 90.4595552124083,132.04078435897827 103.4064077027142,126.19012209773064"></polygon><polygon fill="rgb(255,0,0)" stroke="rgb(255,0,0)" points="91.6722434675321,58.93770858645439 104.62812270596623,68.42917215824127 91.67908663116395,104.60651138797402"></polygon><polygon fill="rgb(255,0,0)" stroke="rgb(255,0,0)" points="79.94355369359255,67.83272367715836 91.6722434675321,58.93770858645439 91.67908663116395,104.60651138797402"></polygon><polygon fill="rgb(255,0,0)" stroke="rgb(255,0,0)" points="65.7571288049221,131.43417146801949 77.494628675282,153.06423059105873 65.79176799952984,146.5732657313347"></polygon><polygon fill="rgb(255,0,0)" stroke="rgb(255,0,0)" points="52.68668591976166,122.10826774686575 54.02835212647915,109.82018751837313 91.67908663116395,104.60651138797402"></polygon><polygon fill="rgb(255,0,0)" stroke="rgb(255,0,0)" points="65.7571288049221,131.43417146801949 52.68668591976166,122.10826774686575 91.67908663116395,104.60651138797402"></polygon><polygon fill="rgb(255,0,0)" stroke="rgb(255,0,0)" points="91.67908663116395,104.60651138797402 116.34378951787949,105.20802461355925 127.01280078291893,123.92935626208782"></polygon><polygon fill="rgb(255,0,0)" stroke="rgb(255,0,0)" points="127.01280078291893,123.92935626208782 115.16950242966413,132.64758241176605 91.67908663116395,104.60651138797402"></polygon><polygon fill="rgb(255,0,0)" stroke="rgb(255,0,0)" points="115.16950242966413,132.64758241176605 126.88718737661839,169.40545392036438 115.14243838191032,147.7897627055645"></polygon><polygon fill="rgb(255,0,0)" stroke="rgb(255,0,0)" points="102.20802769064903,153.67436155676842 115.16950242966413,132.64758241176605 115.14243838191032,147.7897627055645"></polygon><polygon fill="rgb(255,0,0)" stroke="rgb(255,0,0)" points="55.26649086177349,67.23645386099815 79.94355369359255,67.83272367715836 66.95563212037086,73.60053089261055"></polygon><polygon fill="rgb(255,0,0)" stroke="rgb(255,0,0)" points="127.01280078291893,123.92935626208782 116.34378951787949,105.20802461355925 128.12528431415558,111.63003496453166"></polygon><polygon fill="rgb(255,0,0)" stroke="rgb(255,0,0)" points="79.94355369359255,67.83272367715836 66.98879724740982,88.82184837758541 66.95563212037086,73.60053089261055"></polygon><polygon fill="rgb(255,0,0)" stroke="rgb(255,0,0)" points="54.02835212647915,109.82018751837313 42.30829167366028,88.22225864231586 53.978963896632195,94.6217974126339"></polygon><polygon fill="rgb(255,0,0)" stroke="rgb(255,0,0)" points="127.01280078291893,123.92935626208782 128.12528431415558,111.63003496453166 165.69568875432014,106.41159985028207"></polygon><polygon fill="rgb(255,255,255)" stroke="rgb(255,255,255)" points="165.69568875432014,106.41159985028207 126.88718737661839,169.40545392036438 127.01280078291893,123.92935626208782"></polygon><polygon fill="rgb(255,0,0)" stroke="rgb(255,0,0)" points="64.56020544469357,189.19165205955505 89.24618060328066,189.80664920806885 76.26799128949642,195.75564539432526"></polygon><polygon fill="rgb(255,255,255)" stroke="rgb(255,255,255)" points="76.28952688723803,210.82892274856567 64.56020544469357,189.19165205955505 76.26799128949642,195.75564539432526"></polygon><polygon fill="rgb(255,0,0)" stroke="rgb(255,0,0)" points="104.62812270596623,68.42917215824127 129.32020138204098,69.02580255270004 116.40095909684896,74.79712134599686"></polygon><polygon fill="rgb(255,0,0)" stroke="rgb(255,0,0)" points="116.37233877927065,90.02157683670521 104.62812270596623,68.42917215824127 116.40095909684896,74.79712134599686"></polygon><polygon fill="rgb(255,0,0)" stroke="rgb(255,0,0)" points="66.98879724740982,88.82184837758541 54.02835212647915,109.82018751837313 53.978963896632195,94.6217974126339"></polygon><polygon fill="rgb(255,0,0)" stroke="rgb(255,0,0)" points="52.68668591976166,122.10826774686575 65.7571288049221,131.43417146801949 52.83959326148033,167.57044821977615"></polygon><polygon fill="rgb(255,0,0)" stroke="rgb(255,0,0)" points="89.24618060328066,189.80664920806885 76.28952688723803,210.82892274856567 76.26799128949642,195.75564539432526"></polygon><polygon fill="rgb(255,0,0)" stroke="rgb(255,0,0)" points="89.24618060328066,189.80664920806885 113.93966751545668,190.42183476686478 100.99583212658763,196.37263709306717"></polygon><polygon fill="rgb(255,0,0)" stroke="rgb(255,0,0)" points="100.98646246269345,211.4474412202835 89.24618060328066,189.80664920806885 100.99583212658763,196.37263709306717"></polygon><polygon fill="rgb(255,255,255)" stroke="rgb(255,255,255)" points="113.93966751545668,190.42183476686478 100.98646246269345,211.4474412202835 100.99583212658763,196.37263709306717"></polygon><polygon fill="rgb(255,0,0)" stroke="rgb(255,0,0)" points="102.20802769064903,153.67436155676842 89.24618060328066,189.80664920806885 89.23552391678095,159.57629090547562"></polygon><polygon fill="rgb(255,0,0)" stroke="rgb(255,0,0)" points="89.24618060328066,189.80664920806885 77.494628675282,153.06423059105873 89.23552391678095,159.57629090547562"></polygon><polygon fill="rgb(255,0,0)" stroke="rgb(255,0,0)" points="128.12528431415558,111.63003496453166 116.37233877927065,90.02157683670521 128.16862858831882,96.42696363478899"></polygon><polygon fill="rgb(255,0,0)" stroke="rgb(255,0,0)" points="141.07537752389908,90.62171393632889 128.12528431415558,111.63003496453166 128.16862858831882,96.42696363478899"></polygon><polygon fill="rgb(255,0,0)" stroke="rgb(255,0,0)" points="115.16950242966413,132.64758241176605 127.01280078291893,123.92935626208782 126.88718737661839,169.40545392036438"></polygon><polygon fill="rgb(255,0,0)" stroke="rgb(255,0,0)" points="65.7571288049221,131.43417146801949 90.4595552124083,132.04078435897827 77.47458665072918,137.9086731672287"></polygon><polygon fill="rgb(255,0,0)" stroke="rgb(255,0,0)" points="77.494628675282,153.06423059105873 65.7571288049221,131.43417146801949 77.47458665072918,137.9086731672287"></polygon><polygon fill="rgb(255,0,0)" stroke="rgb(255,0,0)" points="90.4595552124083,132.04078435897827 115.16950242966413,132.64758241176605 102.21893342211843,138.51725786924362"></polygon><polygon fill="rgb(255,0,0)" stroke="rgb(255,0,0)" points="115.16950242966413,132.64758241176605 102.20802769064903,153.67436155676842 102.21893342211843,138.51725786924362"></polygon><polygon fill="rgb(255,255,255)" stroke="rgb(255,255,255)" points="66.92238618433475,58.34108144044876 42.180072873830795,57.744636207818985 55.218679800629616,51.99380540847778"></polygon><polygon fill="rgb(255,0,0)" stroke="rgb(255,0,0)" points="53.92945306003094,79.3853275179863 29.18367889523506,78.78554287552834 42.24426308274269,73.00250691175461"></polygon><polygon fill="rgb(255,0,0)" stroke="rgb(255,0,0)" points="42.180072873830795,57.744636207818985 53.92945306003094,79.3853275179863 42.24426308274269,73.00250691175461"></polygon><polygon fill="rgb(255,0,0)" stroke="rgb(255,0,0)" points="53.92945306003094,79.3853275179863 66.92238618433475,58.34108144044876 66.95563212037086,73.60053089261055"></polygon><polygon fill="rgb(255,255,255)" stroke="rgb(255,255,255)" points="29.18367889523506,78.78554287552834 40.930804789066315,100.43883493542671 29.264142364263535,94.02044214308262"></polygon><polygon fill="rgb(255,255,255)" stroke="rgb(255,255,255)" points="141.19461259245872,60.131508618593216 116.429651863873,59.53451764583588 129.36501415073872,53.778427600860596"></polygon><polygon fill="rgb(255,0,0)" stroke="rgb(255,0,0)" points="40.930804789066315,100.43883493542671 53.92945306003094,79.3853275179863 53.978963896632195,94.6217974126339"></polygon><polygon fill="rgb(255,0,0)" stroke="rgb(255,0,0)" points="116.429651863873,59.53451764583588 128.21208153665066,81.18578267097473 116.40095909684896,74.79712134599686"></polygon><polygon fill="rgb(255,0,0)" stroke="rgb(255,0,0)" points="90.44810785166919,86.39085222780704 53.92945306003094,79.3853275179863 66.95563212037086,73.60053089261055"></polygon><polygon fill="rgb(255,0,0)" stroke="rgb(255,0,0)" points="128.21208153665066,81.18578267097473 141.19461259245872,60.131508618593216 141.13491982221603,75.39569106698036"></polygon><polygon fill="rgb(255,0,0)" stroke="rgb(255,0,0)" points="152.98806712031364,81.78629983961582 128.21208153665066,81.18578267097473 141.13491982221603,75.39569106698036"></polygon><polygon fill="rgb(255,0,0)" stroke="rgb(255,0,0)" points="53.92945306003094,79.3853275179863 77.43435352295637,107.48340737167746 53.978963896632195,94.6217974126339"></polygon><polygon fill="rgb(255,0,0)" stroke="rgb(255,0,0)" points="128.21208153665066,81.18578267097473 90.44810785166919,86.39085222780704 116.40095909684896,74.79712134599686"></polygon><polygon fill="rgb(255,0,0)" stroke="rgb(255,0,0)" points="128.21208153665066,81.18578267097473 140.0032957047224,102.8531880415976 128.16862858831882,96.42696363478899"></polygon><polygon fill="rgb(255,255,255)" stroke="rgb(255,255,255)" points="140.0032957047224,102.8531880415976 152.98806712031364,81.78629983961582 152.91358909010887,97.0290514305234"></polygon><polygon fill="rgb(255,0,0)" stroke="rgb(255,0,0)" points="102.24082639068365,108.08887091930956 128.21208153665066,81.18578267097473 128.16862858831882,96.42696363478899"></polygon><polygon fill="rgb(255,0,0)" stroke="rgb(255,0,0)" points="89.23017554543912,144.4042410850525 64.45133343338966,143.793859988451 77.47458665072918,137.9086731672287"></polygon><polygon fill="rgb(255,0,0)" stroke="rgb(255,0,0)" points="53.92945306003094,79.3853275179863 42.180072873830795,57.744636207818985 53.87981961667538,64.11063307523727"></polygon><polygon fill="rgb(255,255,255)" stroke="rgb(255,255,255)" points="42.180072873830795,57.744636207818985 66.92238618433475,58.34108144044876 53.87981961667538,64.11063307523727"></polygon><polygon fill="rgb(255,0,0)" stroke="rgb(255,0,0)" points="114.01658514142036,145.01480734348297 89.23017554543912,144.4042410850525 102.21893342211843,138.51725786924362"></polygon><polygon fill="rgb(255,0,0)" stroke="rgb(255,0,0)" points="77.43435352295637,107.48340737167746 89.23017554543912,144.4042410850525 77.47458665072918,137.9086731672287"></polygon><polygon fill="rgb(255,255,255)" stroke="rgb(255,255,255)" points="64.45133343338966,143.793859988451 76.22475708276033,165.49562871456146 64.48771420121193,158.96436029672623"></polygon><polygon fill="rgb(255,0,0)" stroke="rgb(255,0,0)" points="66.92238618433475,58.34108144044876 53.92945306003094,79.3853275179863 53.87981961667538,64.11063307523727"></polygon><polygon fill="rgb(255,0,0)" stroke="rgb(255,0,0)" points="89.23017554543912,144.4042410850525 102.24082639068365,108.08887091930956 102.21893342211843,138.51725786924362"></polygon><polygon fill="rgb(255,0,0)" stroke="rgb(255,0,0)" points="76.22475708276033,165.49562871456146 89.23017554543912,144.4042410850525 89.23552391678095,159.57629090547562"></polygon><polygon fill="rgb(255,0,0)" stroke="rgb(255,0,0)" points="29.18367889523506,78.78554287552834 53.92945306003094,79.3853275179863 40.8648479282856,85.1871898919344"></polygon><polygon fill="rgb(255,255,255)" stroke="rgb(255,255,255)" points="40.930804789066315,100.43883493542671 29.18367889523506,78.78554287552834 40.8648479282856,85.1871898919344"></polygon><polygon fill="rgb(255,0,0)" stroke="rgb(255,0,0)" points="89.23017554543912,144.4042410850525 101.01464111730456,166.10955387353897 89.23552391678095,159.57629090547562"></polygon><polygon fill="rgb(255,0,0)" stroke="rgb(255,0,0)" points="53.92945306003094,79.3853275179863 40.930804789066315,100.43883493542671 40.8648479282856,85.1871898919344"></polygon><polygon fill="rgb(255,255,255)" stroke="rgb(255,255,255)" points="101.01464111730456,166.10955387353897 114.01658514142036,145.01480734348297 113.99088091403246,160.188406676054"></polygon><polygon fill="rgb(255,0,0)" stroke="rgb(255,0,0)" points="128.21208153665066,81.18578267097473 116.429651863873,59.53451764583588 128.25564315915108,65.90634873509407"></polygon><polygon fill="rgb(255,255,255)" stroke="rgb(255,255,255)" points="116.429651863873,59.53451764583588 141.19461259245872,60.131508618593216 128.25564315915108,65.90634873509407"></polygon><polygon fill="rgb(255,0,0)" stroke="rgb(255,0,0)" points="141.19461259245872,60.131508618593216 128.21208153665066,81.18578267097473 128.25564315915108,65.90634873509407"></polygon><polygon fill="rgb(255,0,0)" stroke="rgb(255,0,0)" points="53.92945306003094,79.3853275179863 90.44810785166919,86.39085222780704 77.41416102647781,92.21341374516487"></polygon><polygon fill="rgb(255,0,0)" stroke="rgb(255,0,0)" points="77.43435352295637,107.48340737167746 53.92945306003094,79.3853275179863 77.41416102647781,92.21341374516487"></polygon><polygon fill="rgb(255,0,0)" stroke="rgb(255,0,0)" points="128.21208153665066,81.18578267097473 152.98806712031364,81.78629983961582 140.06167602539062,87.59525196254253"></polygon><polygon fill="rgb(255,0,0)" stroke="rgb(255,0,0)" points="140.0032957047224,102.8531880415976 128.21208153665066,81.18578267097473 140.06167602539062,87.59525196254253"></polygon><polygon fill="rgb(255,255,255)" stroke="rgb(255,255,255)" points="152.98806712031364,81.78629983961582 140.0032957047224,102.8531880415976 140.06167602539062,87.59525196254253"></polygon><polygon fill="rgb(255,0,0)" stroke="rgb(255,0,0)" points="90.44810785166919,86.39085222780704 128.21208153665066,81.18578267097473 102.25181432440877,92.81730280816555"></polygon><polygon fill="rgb(255,0,0)" stroke="rgb(255,0,0)" points="128.21208153665066,81.18578267097473 102.24082639068365,108.08887091930956 102.25181432440877,92.81730280816555"></polygon><polygon fill="rgb(255,0,0)" stroke="rgb(255,0,0)" points="64.45133343338966,143.793859988451 89.23017554543912,144.4042410850525 76.20305847376585,150.30861002206802"></polygon><polygon fill="rgb(255,255,255)" stroke="rgb(255,255,255)" points="76.22475708276033,165.49562871456146 64.45133343338966,143.793859988451 76.20305847376585,150.30861002206802"></polygon><polygon fill="rgb(255,0,0)" stroke="rgb(255,0,0)" points="89.23017554543912,144.4042410850525 76.22475708276033,165.49562871456146 76.20305847376585,150.30861002206802"></polygon><polygon fill="rgb(255,0,0)" stroke="rgb(255,0,0)" points="89.23017554543912,144.4042410850525 114.01658514142036,145.01480734348297 101.0240811407566,150.9209824204445"></polygon><polygon fill="rgb(255,0,0)" stroke="rgb(255,0,0)" points="101.01464111730456,166.10955387353897 89.23017554543912,144.4042410850525 101.0240811407566,150.9209824204445"></polygon><polygon fill="rgb(255,255,255)" stroke="rgb(255,255,255)" points="114.01658514142036,145.01480734348297 101.01464111730456,166.10955387353897 101.0240811407566,150.9209824204445"></polygon><polygon fill="rgb(255,0,0)" stroke="rgb(255,0,0)" points="102.24082639068365,108.08887091930956 89.23017554543912,144.4042410850525 89.21943804994226,113.94568138569593"></polygon><polygon fill="rgb(255,0,0)" stroke="rgb(255,0,0)" points="89.23017554543912,144.4042410850525 77.43435352295637,107.48340737167746 89.21943804994226,113.94568138569593"></polygon><polygon fill="rgb(255,255,255)" stroke="rgb(255,255,255)" points="102.26282942667603,77.50728955864906 77.39391837269068,76.9049873650074 90.4442729074508,71.09772443771362"></polygon><polygon fill="rgb(255,0,0)" stroke="rgb(255,0,0)" points="89.21404927410185,98.65888401865959 64.3416393995285,98.05320749431849 77.41416102647781,92.21341374516487"></polygon><polygon fill="rgb(255,0,0)" stroke="rgb(255,0,0)" points="77.39391837269068,76.9049873650074 89.21404927410185,98.65888401865959 77.41416102647781,92.21341374516487"></polygon><polygon fill="rgb(255,0,0)" stroke="rgb(255,0,0)" points="89.21404927410185,98.65888401865959 102.26282942667603,77.50728955864906 102.25181432440877,92.81730280816555"></polygon><polygon fill="rgb(255,0,0)" stroke="rgb(255,0,0)" points="114.09408236294985,99.26474651694298 89.21404927410185,98.65888401865959 102.25181432440877,92.81730280816555"></polygon><polygon fill="rgb(255,255,255)" stroke="rgb(255,255,255)" points="64.3416393995285,98.05320749431849 76.159498244524,119.8198323994875 64.37829603254795,113.33842692524195"></polygon><polygon fill="rgb(255,0,0)" stroke="rgb(255,0,0)" points="76.159498244524,119.8198323994875 89.21404927410185,98.65888401865959 89.21943804994226,113.94568138569593"></polygon><polygon fill="rgb(255,0,0)" stroke="rgb(255,0,0)" points="89.21404927410185,98.65888401865959 101.04303294047713,120.42907247692347 89.21943804994226,113.94568138569593"></polygon><polygon fill="rgb(255,255,255)" stroke="rgb(255,255,255)" points="101.04303294047713,120.42907247692347 114.09408236294985,99.26474651694298 114.06818447262049,114.55312222614884"></polygon><polygon fill="rgb(255,0,0)" stroke="rgb(255,0,0)" points="89.21404927410185,98.65888401865959 77.39391837269068,76.9049873650074 89.20864691399038,83.33354943990707"></polygon><polygon fill="rgb(255,255,255)" stroke="rgb(255,255,255)" points="77.39391837269068,76.9049873650074 102.26282942667603,77.50728955864906 89.20864691399038,83.33354943990707"></polygon><polygon fill="rgb(255,0,0)" stroke="rgb(255,0,0)" points="102.26282942667603,77.50728955864906 89.21404927410185,98.65888401865959 89.20864691399038,83.33354943990707"></polygon><polygon fill="rgb(255,0,0)" stroke="rgb(255,0,0)" points="64.3416393995285,98.05320749431849 89.21404927410185,98.65888401865959 76.13763523101807,104.517783138901"></polygon><polygon fill="rgb(255,255,255)" stroke="rgb(255,255,255)" points="76.159498244524,119.8198323994875 64.3416393995285,98.05320749431849 76.13763523101807,104.517783138901"></polygon><polygon fill="rgb(255,0,0)" stroke="rgb(255,0,0)" points="89.21404927410185,98.65888401865959 76.159498244524,119.8198323994875 76.13763523101807,104.517783138901"></polygon><polygon fill="rgb(255,0,0)" stroke="rgb(255,0,0)" points="89.21404927410185,98.65888401865959 114.09408236294985,99.26474651694298 101.05254471674562,105.12544284388423"></polygon><polygon fill="rgb(255,0,0)" stroke="rgb(255,0,0)" points="101.04303294047713,120.42907247692347 89.21404927410185,98.65888401865959 101.05254471674562,105.12544284388423"></polygon><polygon fill="rgb(255,255,255)" stroke="rgb(255,255,255)" points="114.09408236294985,99.26474651694298 101.04303294047713,120.42907247692347 101.05254471674562,105.12544284388423"></polygon></svg>